<?xml version="1.0" encoding="UTF-8" standalone="no"?>
<!DOCTYPE svg PUBLIC "-//W3C//DTD SVG 1.1//EN"
 "http://www.w3.org/Graphics/SVG/1.1/DTD/svg11.dtd">
<!-- Generated by graphviz version 2.50.0 (20211204.2007)
 -->
<!-- Pages: 1 -->
<svg width="248pt" height="223pt"
 viewBox="0.00 0.00 248.42 223.48" xmlns="http://www.w3.org/2000/svg" xmlns:xlink="http://www.w3.org/1999/xlink">
<g id="graph0" class="graph" transform="scale(1 1) rotate(0) translate(4 219.48)">
<polygon fill="white" stroke="transparent" points="-4,4 -4,-219.48 244.42,-219.48 244.42,4 -4,4"/>
<!-- V1 -->
<g id="node1" class="node">
<title>V1</title>
<ellipse fill="none" stroke="black" cx="120.21" cy="-188.61" rx="120.42" ry="26.74"/>
<text text-anchor="middle" x="120.21" y="-192.41" font-family="Times New Roman,serif" font-size="14.00">Geraldine Pierce</text>
<text text-anchor="middle" x="120.21" y="-177.41" font-family="Times New Roman,serif" font-size="14.00">Color: 1::Blanco y Negro: 0</text>
</g>
<!-- V2 -->
<g id="node2" class="node">
<title>V2</title>
<ellipse fill="none" stroke="black" cx="120.21" cy="-98.87" rx="120.42" ry="26.74"/>
<text text-anchor="middle" x="120.21" y="-102.67" font-family="Times New Roman,serif" font-size="14.00">Long Meyer</text>
<text text-anchor="middle" x="120.21" y="-87.67" font-family="Times New Roman,serif" font-size="14.00">Color: 0::Blanco y Negro: 0</text>
</g>
<!-- V1&#45;&gt;V2 -->
<g id="edge1" class="edge">
<title>V1&#45;&gt;V2</title>
<path fill="none" stroke="black" d="M120.21,-161.29C120.21,-153.32 120.21,-144.43 120.21,-135.94"/>
<polygon fill="black" stroke="black" points="123.71,-135.87 120.21,-125.87 116.71,-135.87 123.71,-135.87"/>
</g>
<!-- V3 -->
<g id="node3" class="node">
<title>V3</title>
<ellipse fill="none" stroke="black" cx="120.21" cy="-18" rx="33.6" ry="18"/>
<text text-anchor="middle" x="120.21" y="-14.3" font-family="Times New Roman,serif" font-size="14.00">Vacia </text>
</g>
<!-- V2&#45;&gt;V3 -->
<g id="edge2" class="edge">
<title>V2&#45;&gt;V3</title>
<path fill="none" stroke="black" d="M120.21,-71.61C120.21,-63.51 120.21,-54.57 120.21,-46.39"/>
<polygon fill="black" stroke="black" points="123.71,-46.22 120.21,-36.22 116.71,-46.22 123.71,-46.22"/>
</g>
</g>
</svg>
