<?xml version="1.0" encoding="UTF-8" standalone="no"?>
<!DOCTYPE svg PUBLIC "-//W3C//DTD SVG 1.1//EN"
 "http://www.w3.org/Graphics/SVG/1.1/DTD/svg11.dtd">
<!-- Generated by graphviz version 2.50.0 (20211204.2007)
 -->
<!-- Pages: 1 -->
<svg width="700pt" height="4743pt"
 viewBox="0.00 0.00 699.57 4742.99" xmlns="http://www.w3.org/2000/svg" xmlns:xlink="http://www.w3.org/1999/xlink">
<g id="graph0" class="graph" transform="scale(1 1) rotate(0) translate(4 4738.99)">
<polygon fill="white" stroke="transparent" points="-4,4 -4,-4738.99 695.57,-4738.99 695.57,4 -4,4"/>
<!-- V1 -->
<g id="node1" class="node">
<title>V1</title>
<ellipse fill="none" stroke="black" cx="120.21" cy="-4697.52" rx="120.42" ry="26.74"/>
<text text-anchor="middle" x="120.21" y="-4701.32" font-family="Times New Roman,serif" font-size="14.00">Leigh Bright</text>
<text text-anchor="middle" x="120.21" y="-4686.32" font-family="Times New Roman,serif" font-size="14.00">Color: 1::Blanco y Negro: 3</text>
</g>
<!-- V2 -->
<g id="node2" class="node">
<title>V2</title>
<ellipse fill="none" stroke="black" cx="120.21" cy="-4586.56" rx="120.42" ry="26.74"/>
<text text-anchor="middle" x="120.21" y="-4590.36" font-family="Times New Roman,serif" font-size="14.00">Noelle Morse</text>
<text text-anchor="middle" x="120.21" y="-4575.36" font-family="Times New Roman,serif" font-size="14.00">Color: 0::Blanco y Negro: 1</text>
</g>
<!-- V1&#45;&gt;V2 -->
<g id="edge1" class="edge">
<title>V1&#45;&gt;V2</title>
<path fill="none" stroke="black" d="M120.21,-4670.42C120.21,-4656.4 120.21,-4638.91 120.21,-4623.62"/>
<polygon fill="black" stroke="black" points="123.71,-4623.45 120.21,-4613.45 116.71,-4623.45 123.71,-4623.45"/>
</g>
<!-- V3 -->
<g id="node3" class="node">
<title>V3</title>
<ellipse fill="none" stroke="black" cx="120.21" cy="-4475.61" rx="120.42" ry="26.74"/>
<text text-anchor="middle" x="120.21" y="-4479.41" font-family="Times New Roman,serif" font-size="14.00">Elinor Ford</text>
<text text-anchor="middle" x="120.21" y="-4464.41" font-family="Times New Roman,serif" font-size="14.00">Color: 0::Blanco y Negro: 0</text>
</g>
<!-- V2&#45;&gt;V3 -->
<g id="edge2" class="edge">
<title>V2&#45;&gt;V3</title>
<path fill="none" stroke="black" d="M120.21,-4559.47C120.21,-4545.45 120.21,-4527.96 120.21,-4512.66"/>
<polygon fill="black" stroke="black" points="123.71,-4512.49 120.21,-4502.49 116.71,-4512.49 123.71,-4512.49"/>
</g>
<!-- E1 -->
<g id="node4" class="node">
<title>E1</title>
<ellipse fill="none" stroke="black" cx="342.21" cy="-4697.52" rx="84.29" ry="26.74"/>
<text text-anchor="middle" x="342.21" y="-4701.32" font-family="Times New Roman,serif" font-size="14.00">Shannon Johnston</text>
<text text-anchor="middle" x="342.21" y="-4686.32" font-family="Times New Roman,serif" font-size="14.00">Pasos:3</text>
</g>
<!-- E1&#45;&gt;E1 -->
<g id="edge3" class="edge">
<title>E1&#45;&gt;E1</title>
<path fill="none" stroke="black" d="M421.01,-4707.18C434.78,-4705.89 444.35,-4702.67 444.35,-4697.52 444.35,-4693.73 439.19,-4690.99 430.99,-4689.28"/>
<polygon fill="black" stroke="black" points="431.41,-4685.81 421.01,-4687.85 430.41,-4692.74 431.41,-4685.81"/>
</g>
<!-- E1&#45;&gt;E1 -->
<g id="edge4" class="edge">
<title>E1&#45;&gt;E1</title>
<path fill="none" stroke="black" d="M400,-4717.12C432.42,-4720.86 462.35,-4714.33 462.35,-4697.52 462.35,-4682.48 438.4,-4675.66 410.14,-4677.07"/>
<polygon fill="black" stroke="black" points="409.68,-4673.6 400,-4677.91 410.26,-4680.57 409.68,-4673.6"/>
</g>
<!-- C1 -->
<g id="node5" class="node">
<title>C1</title>
<ellipse fill="none" stroke="black" cx="586.21" cy="-4697.52" rx="105.22" ry="37.45"/>
<text text-anchor="middle" x="586.21" y="-4708.82" font-family="Times New Roman,serif" font-size="14.00">Brigitte Wheeler</text>
<text text-anchor="middle" x="586.21" y="-4693.82" font-family="Times New Roman,serif" font-size="14.00">Color: 4::BN: 3</text>
<text text-anchor="middle" x="586.21" y="-4678.82" font-family="Times New Roman,serif" font-size="14.00">Pasos: 13::Atendido V3</text>
</g>
<!-- C2 -->
<g id="node6" class="node">
<title>C2</title>
<ellipse fill="none" stroke="black" cx="520.21" cy="-4586.56" rx="100.32" ry="37.45"/>
<text text-anchor="middle" x="520.21" y="-4597.86" font-family="Times New Roman,serif" font-size="14.00">Long Meyer</text>
<text text-anchor="middle" x="520.21" y="-4582.86" font-family="Times New Roman,serif" font-size="14.00">Color: 3::BN: 0</text>
<text text-anchor="middle" x="520.21" y="-4567.86" font-family="Times New Roman,serif" font-size="14.00">Pasos: 9::Atendido V2</text>
</g>
<!-- C1&#45;&gt;C2 -->
<g id="edge5" class="edge">
<title>C1&#45;&gt;C2</title>
<path fill="none" stroke="black" d="M564.41,-4660.54C558.95,-4651.52 553.02,-4641.73 547.34,-4632.34"/>
<polygon fill="black" stroke="black" points="550.15,-4630.24 541.98,-4623.5 544.17,-4633.87 550.15,-4630.24"/>
</g>
<!-- C3 -->
<g id="node7" class="node">
<title>C3</title>
<ellipse fill="none" stroke="black" cx="518.21" cy="-4475.61" rx="105.22" ry="37.45"/>
<text text-anchor="middle" x="518.21" y="-4486.91" font-family="Times New Roman,serif" font-size="14.00">Geraldine Pierce</text>
<text text-anchor="middle" x="518.21" y="-4471.91" font-family="Times New Roman,serif" font-size="14.00">Color: 3::BN: 1</text>
<text text-anchor="middle" x="518.21" y="-4456.91" font-family="Times New Roman,serif" font-size="14.00">Pasos: 10::Atendido V1</text>
</g>
<!-- C2&#45;&gt;C3 -->
<g id="edge6" class="edge">
<title>C2&#45;&gt;C3</title>
<path fill="none" stroke="black" d="M519.54,-4548.98C519.39,-4540.8 519.23,-4532.03 519.07,-4523.5"/>
<polygon fill="black" stroke="black" points="522.56,-4523.22 518.88,-4513.28 515.57,-4523.34 522.56,-4523.22"/>
</g>
<!-- C4 -->
<g id="node8" class="node">
<title>C4</title>
<ellipse fill="none" stroke="black" cx="518.21" cy="-4364.66" rx="100.32" ry="37.45"/>
<text text-anchor="middle" x="518.21" y="-4375.96" font-family="Times New Roman,serif" font-size="14.00">Gay Mcmillan</text>
<text text-anchor="middle" x="518.21" y="-4360.96" font-family="Times New Roman,serif" font-size="14.00">Color: 0::BN: 1</text>
<text text-anchor="middle" x="518.21" y="-4345.96" font-family="Times New Roman,serif" font-size="14.00">Pasos: 7::Atendido V1</text>
</g>
<!-- C3&#45;&gt;C4 -->
<g id="edge7" class="edge">
<title>C3&#45;&gt;C4</title>
<path fill="none" stroke="black" d="M518.21,-4438.03C518.21,-4429.85 518.21,-4421.07 518.21,-4412.55"/>
<polygon fill="black" stroke="black" points="521.71,-4412.33 518.21,-4402.33 514.71,-4412.33 521.71,-4412.33"/>
</g>
<!-- C5 -->
<g id="node9" class="node">
<title>C5</title>
<ellipse fill="none" stroke="black" cx="518.21" cy="-4253.7" rx="105.22" ry="37.45"/>
<text text-anchor="middle" x="518.21" y="-4265" font-family="Times New Roman,serif" font-size="14.00">Gutierrez Casey</text>
<text text-anchor="middle" x="518.21" y="-4250" font-family="Times New Roman,serif" font-size="14.00">Color: 3::BN: 4</text>
<text text-anchor="middle" x="518.21" y="-4235" font-family="Times New Roman,serif" font-size="14.00">Pasos: 13::Atendido V3</text>
</g>
<!-- C4&#45;&gt;C5 -->
<g id="edge8" class="edge">
<title>C4&#45;&gt;C5</title>
<path fill="none" stroke="black" d="M518.21,-4327.07C518.21,-4318.9 518.21,-4310.12 518.21,-4301.59"/>
<polygon fill="black" stroke="black" points="521.71,-4301.37 518.21,-4291.37 514.71,-4301.37 521.71,-4301.37"/>
</g>
<!-- C6 -->
<g id="node10" class="node">
<title>C6</title>
<ellipse fill="none" stroke="black" cx="518.21" cy="-4142.75" rx="105.22" ry="37.45"/>
<text text-anchor="middle" x="518.21" y="-4154.05" font-family="Times New Roman,serif" font-size="14.00">Nola Winters</text>
<text text-anchor="middle" x="518.21" y="-4139.05" font-family="Times New Roman,serif" font-size="14.00">Color: 3::BN: 1</text>
<text text-anchor="middle" x="518.21" y="-4124.05" font-family="Times New Roman,serif" font-size="14.00">Pasos: 10::Atendido V2</text>
</g>
<!-- C5&#45;&gt;C6 -->
<g id="edge9" class="edge">
<title>C5&#45;&gt;C6</title>
<path fill="none" stroke="black" d="M518.21,-4216.12C518.21,-4207.95 518.21,-4199.17 518.21,-4190.64"/>
<polygon fill="black" stroke="black" points="521.71,-4190.42 518.21,-4180.42 514.71,-4190.42 521.71,-4190.42"/>
</g>
<!-- C7 -->
<g id="node11" class="node">
<title>C7</title>
<ellipse fill="none" stroke="black" cx="518.21" cy="-4031.8" rx="105.22" ry="37.45"/>
<text text-anchor="middle" x="518.21" y="-4043.1" font-family="Times New Roman,serif" font-size="14.00">Pruitt Perez</text>
<text text-anchor="middle" x="518.21" y="-4028.1" font-family="Times New Roman,serif" font-size="14.00">Color: 4::BN: 2</text>
<text text-anchor="middle" x="518.21" y="-4013.1" font-family="Times New Roman,serif" font-size="14.00">Pasos: 12::Atendido V1</text>
</g>
<!-- C6&#45;&gt;C7 -->
<g id="edge10" class="edge">
<title>C6&#45;&gt;C7</title>
<path fill="none" stroke="black" d="M518.21,-4105.17C518.21,-4096.99 518.21,-4088.21 518.21,-4079.69"/>
<polygon fill="black" stroke="black" points="521.71,-4079.47 518.21,-4069.47 514.71,-4079.47 521.71,-4079.47"/>
</g>
<!-- C8 -->
<g id="node12" class="node">
<title>C8</title>
<ellipse fill="none" stroke="black" cx="518.21" cy="-3920.84" rx="100.32" ry="37.45"/>
<text text-anchor="middle" x="518.21" y="-3932.14" font-family="Times New Roman,serif" font-size="14.00">Hudson Lancaster</text>
<text text-anchor="middle" x="518.21" y="-3917.14" font-family="Times New Roman,serif" font-size="14.00">Color: 1::BN: 1</text>
<text text-anchor="middle" x="518.21" y="-3902.14" font-family="Times New Roman,serif" font-size="14.00">Pasos: 8::Atendido V2</text>
</g>
<!-- C7&#45;&gt;C8 -->
<g id="edge11" class="edge">
<title>C7&#45;&gt;C8</title>
<path fill="none" stroke="black" d="M518.21,-3994.21C518.21,-3986.04 518.21,-3977.26 518.21,-3968.73"/>
<polygon fill="black" stroke="black" points="521.71,-3968.51 518.21,-3958.51 514.71,-3968.51 521.71,-3968.51"/>
</g>
<!-- C9 -->
<g id="node13" class="node">
<title>C9</title>
<ellipse fill="none" stroke="black" cx="518.21" cy="-3809.89" rx="105.22" ry="37.45"/>
<text text-anchor="middle" x="518.21" y="-3821.19" font-family="Times New Roman,serif" font-size="14.00">Roman Branch</text>
<text text-anchor="middle" x="518.21" y="-3806.19" font-family="Times New Roman,serif" font-size="14.00">Color: 3::BN: 2</text>
<text text-anchor="middle" x="518.21" y="-3791.19" font-family="Times New Roman,serif" font-size="14.00">Pasos: 11::Atendido V3</text>
</g>
<!-- C8&#45;&gt;C9 -->
<g id="edge12" class="edge">
<title>C8&#45;&gt;C9</title>
<path fill="none" stroke="black" d="M518.21,-3883.26C518.21,-3875.09 518.21,-3866.31 518.21,-3857.78"/>
<polygon fill="black" stroke="black" points="521.71,-3857.56 518.21,-3847.56 514.71,-3857.56 521.71,-3857.56"/>
</g>
<!-- C10 -->
<g id="node14" class="node">
<title>C10</title>
<ellipse fill="none" stroke="black" cx="518.21" cy="-3698.94" rx="100.32" ry="37.45"/>
<text text-anchor="middle" x="518.21" y="-3710.24" font-family="Times New Roman,serif" font-size="14.00">Jolene Mccall</text>
<text text-anchor="middle" x="518.21" y="-3695.24" font-family="Times New Roman,serif" font-size="14.00">Color: 0::BN: 0</text>
<text text-anchor="middle" x="518.21" y="-3680.24" font-family="Times New Roman,serif" font-size="14.00">Pasos: 6::Atendido V2</text>
</g>
<!-- C9&#45;&gt;C10 -->
<g id="edge13" class="edge">
<title>C9&#45;&gt;C10</title>
<path fill="none" stroke="black" d="M518.21,-3772.31C518.21,-3764.13 518.21,-3755.35 518.21,-3746.83"/>
<polygon fill="black" stroke="black" points="521.71,-3746.61 518.21,-3736.61 514.71,-3746.61 521.71,-3746.61"/>
</g>
<!-- C11 -->
<g id="node15" class="node">
<title>C11</title>
<ellipse fill="none" stroke="black" cx="518.21" cy="-3587.98" rx="100.32" ry="37.45"/>
<text text-anchor="middle" x="518.21" y="-3599.28" font-family="Times New Roman,serif" font-size="14.00">Evelyn Fitzgerald</text>
<text text-anchor="middle" x="518.21" y="-3584.28" font-family="Times New Roman,serif" font-size="14.00">Color: 0::BN: 1</text>
<text text-anchor="middle" x="518.21" y="-3569.28" font-family="Times New Roman,serif" font-size="14.00">Pasos: 7::Atendido V1</text>
</g>
<!-- C10&#45;&gt;C11 -->
<g id="edge14" class="edge">
<title>C10&#45;&gt;C11</title>
<path fill="none" stroke="black" d="M518.21,-3661.35C518.21,-3653.18 518.21,-3644.4 518.21,-3635.87"/>
<polygon fill="black" stroke="black" points="521.71,-3635.65 518.21,-3625.65 514.71,-3635.65 521.71,-3635.65"/>
</g>
<!-- C12 -->
<g id="node16" class="node">
<title>C12</title>
<ellipse fill="none" stroke="black" cx="518.21" cy="-3477.03" rx="105.22" ry="37.45"/>
<text text-anchor="middle" x="518.21" y="-3488.33" font-family="Times New Roman,serif" font-size="14.00">Carolyn Harmon</text>
<text text-anchor="middle" x="518.21" y="-3473.33" font-family="Times New Roman,serif" font-size="14.00">Color: 3::BN: 2</text>
<text text-anchor="middle" x="518.21" y="-3458.33" font-family="Times New Roman,serif" font-size="14.00">Pasos: 11::Atendido V3</text>
</g>
<!-- C11&#45;&gt;C12 -->
<g id="edge15" class="edge">
<title>C11&#45;&gt;C12</title>
<path fill="none" stroke="black" d="M518.21,-3550.4C518.21,-3542.23 518.21,-3533.45 518.21,-3524.92"/>
<polygon fill="black" stroke="black" points="521.71,-3524.7 518.21,-3514.7 514.71,-3524.7 521.71,-3524.7"/>
</g>
<!-- C13 -->
<g id="node17" class="node">
<title>C13</title>
<ellipse fill="none" stroke="black" cx="518.21" cy="-3366.08" rx="105.22" ry="37.45"/>
<text text-anchor="middle" x="518.21" y="-3377.38" font-family="Times New Roman,serif" font-size="14.00">Yang Wiggins</text>
<text text-anchor="middle" x="518.21" y="-3362.38" font-family="Times New Roman,serif" font-size="14.00">Color: 1::BN: 4</text>
<text text-anchor="middle" x="518.21" y="-3347.38" font-family="Times New Roman,serif" font-size="14.00">Pasos: 11::Atendido V2</text>
</g>
<!-- C12&#45;&gt;C13 -->
<g id="edge16" class="edge">
<title>C12&#45;&gt;C13</title>
<path fill="none" stroke="black" d="M518.21,-3439.45C518.21,-3431.27 518.21,-3422.49 518.21,-3413.97"/>
<polygon fill="black" stroke="black" points="521.71,-3413.75 518.21,-3403.75 514.71,-3413.75 521.71,-3413.75"/>
</g>
<!-- C14 -->
<g id="node18" class="node">
<title>C14</title>
<ellipse fill="none" stroke="black" cx="518.21" cy="-3255.12" rx="105.22" ry="37.45"/>
<text text-anchor="middle" x="518.21" y="-3266.42" font-family="Times New Roman,serif" font-size="14.00">Polly Rodriguez</text>
<text text-anchor="middle" x="518.21" y="-3251.42" font-family="Times New Roman,serif" font-size="14.00">Color: 3::BN: 2</text>
<text text-anchor="middle" x="518.21" y="-3236.42" font-family="Times New Roman,serif" font-size="14.00">Pasos: 11::Atendido V1</text>
</g>
<!-- C13&#45;&gt;C14 -->
<g id="edge17" class="edge">
<title>C13&#45;&gt;C14</title>
<path fill="none" stroke="black" d="M518.21,-3328.49C518.21,-3320.32 518.21,-3311.54 518.21,-3303.01"/>
<polygon fill="black" stroke="black" points="521.71,-3302.79 518.21,-3292.79 514.71,-3302.79 521.71,-3302.79"/>
</g>
<!-- C15 -->
<g id="node19" class="node">
<title>C15</title>
<ellipse fill="none" stroke="black" cx="518.21" cy="-3144.17" rx="100.32" ry="37.45"/>
<text text-anchor="middle" x="518.21" y="-3155.47" font-family="Times New Roman,serif" font-size="14.00">Douglas Dominguez</text>
<text text-anchor="middle" x="518.21" y="-3140.47" font-family="Times New Roman,serif" font-size="14.00">Color: 0::BN: 3</text>
<text text-anchor="middle" x="518.21" y="-3125.47" font-family="Times New Roman,serif" font-size="14.00">Pasos: 9::Atendido V3</text>
</g>
<!-- C14&#45;&gt;C15 -->
<g id="edge18" class="edge">
<title>C14&#45;&gt;C15</title>
<path fill="none" stroke="black" d="M518.21,-3217.54C518.21,-3209.37 518.21,-3200.59 518.21,-3192.06"/>
<polygon fill="black" stroke="black" points="521.71,-3191.84 518.21,-3181.84 514.71,-3191.84 521.71,-3191.84"/>
</g>
<!-- C16 -->
<g id="node20" class="node">
<title>C16</title>
<ellipse fill="none" stroke="black" cx="518.21" cy="-3033.22" rx="105.22" ry="37.45"/>
<text text-anchor="middle" x="518.21" y="-3044.52" font-family="Times New Roman,serif" font-size="14.00">Faith Hopkins</text>
<text text-anchor="middle" x="518.21" y="-3029.52" font-family="Times New Roman,serif" font-size="14.00">Color: 1::BN: 3</text>
<text text-anchor="middle" x="518.21" y="-3014.52" font-family="Times New Roman,serif" font-size="14.00">Pasos: 10::Atendido V1</text>
</g>
<!-- C15&#45;&gt;C16 -->
<g id="edge19" class="edge">
<title>C15&#45;&gt;C16</title>
<path fill="none" stroke="black" d="M518.21,-3106.59C518.21,-3098.41 518.21,-3089.63 518.21,-3081.11"/>
<polygon fill="black" stroke="black" points="521.71,-3080.89 518.21,-3070.89 514.71,-3080.89 521.71,-3080.89"/>
</g>
<!-- C17 -->
<g id="node21" class="node">
<title>C17</title>
<ellipse fill="none" stroke="black" cx="518.21" cy="-2922.26" rx="105.22" ry="37.45"/>
<text text-anchor="middle" x="518.21" y="-2933.56" font-family="Times New Roman,serif" font-size="14.00">Sandy Mason</text>
<text text-anchor="middle" x="518.21" y="-2918.56" font-family="Times New Roman,serif" font-size="14.00">Color: 1::BN: 4</text>
<text text-anchor="middle" x="518.21" y="-2903.56" font-family="Times New Roman,serif" font-size="14.00">Pasos: 11::Atendido V2</text>
</g>
<!-- C16&#45;&gt;C17 -->
<g id="edge20" class="edge">
<title>C16&#45;&gt;C17</title>
<path fill="none" stroke="black" d="M518.21,-2995.63C518.21,-2987.46 518.21,-2978.68 518.21,-2970.15"/>
<polygon fill="black" stroke="black" points="521.71,-2969.93 518.21,-2959.93 514.71,-2969.93 521.71,-2969.93"/>
</g>
<!-- C18 -->
<g id="node22" class="node">
<title>C18</title>
<ellipse fill="none" stroke="black" cx="518.21" cy="-2811.31" rx="100.32" ry="37.45"/>
<text text-anchor="middle" x="518.21" y="-2822.61" font-family="Times New Roman,serif" font-size="14.00">Stefanie Wise</text>
<text text-anchor="middle" x="518.21" y="-2807.61" font-family="Times New Roman,serif" font-size="14.00">Color: 1::BN: 0</text>
<text text-anchor="middle" x="518.21" y="-2792.61" font-family="Times New Roman,serif" font-size="14.00">Pasos: 7::Atendido V3</text>
</g>
<!-- C17&#45;&gt;C18 -->
<g id="edge21" class="edge">
<title>C17&#45;&gt;C18</title>
<path fill="none" stroke="black" d="M518.21,-2884.68C518.21,-2876.51 518.21,-2867.73 518.21,-2859.2"/>
<polygon fill="black" stroke="black" points="521.71,-2858.98 518.21,-2848.98 514.71,-2858.98 521.71,-2858.98"/>
</g>
<!-- C19 -->
<g id="node23" class="node">
<title>C19</title>
<ellipse fill="none" stroke="black" cx="518.21" cy="-2700.36" rx="100.32" ry="37.45"/>
<text text-anchor="middle" x="518.21" y="-2711.66" font-family="Times New Roman,serif" font-size="14.00">Tommie Mcpherson</text>
<text text-anchor="middle" x="518.21" y="-2696.66" font-family="Times New Roman,serif" font-size="14.00">Color: 1::BN: 1</text>
<text text-anchor="middle" x="518.21" y="-2681.66" font-family="Times New Roman,serif" font-size="14.00">Pasos: 8::Atendido V2</text>
</g>
<!-- C18&#45;&gt;C19 -->
<g id="edge22" class="edge">
<title>C18&#45;&gt;C19</title>
<path fill="none" stroke="black" d="M518.21,-2773.73C518.21,-2765.55 518.21,-2756.77 518.21,-2748.25"/>
<polygon fill="black" stroke="black" points="521.71,-2748.03 518.21,-2738.03 514.71,-2748.03 521.71,-2748.03"/>
</g>
<!-- C20 -->
<g id="node24" class="node">
<title>C20</title>
<ellipse fill="none" stroke="black" cx="518.21" cy="-2589.4" rx="105.22" ry="37.45"/>
<text text-anchor="middle" x="518.21" y="-2600.7" font-family="Times New Roman,serif" font-size="14.00">Tabatha Pickett</text>
<text text-anchor="middle" x="518.21" y="-2585.7" font-family="Times New Roman,serif" font-size="14.00">Color: 3::BN: 2</text>
<text text-anchor="middle" x="518.21" y="-2570.7" font-family="Times New Roman,serif" font-size="14.00">Pasos: 11::Atendido V3</text>
</g>
<!-- C19&#45;&gt;C20 -->
<g id="edge23" class="edge">
<title>C19&#45;&gt;C20</title>
<path fill="none" stroke="black" d="M518.21,-2662.77C518.21,-2654.6 518.21,-2645.82 518.21,-2637.29"/>
<polygon fill="black" stroke="black" points="521.71,-2637.07 518.21,-2627.07 514.71,-2637.07 521.71,-2637.07"/>
</g>
<!-- C21 -->
<g id="node25" class="node">
<title>C21</title>
<ellipse fill="none" stroke="black" cx="518.21" cy="-2478.45" rx="105.22" ry="37.45"/>
<text text-anchor="middle" x="518.21" y="-2489.75" font-family="Times New Roman,serif" font-size="14.00">Leach Ross</text>
<text text-anchor="middle" x="518.21" y="-2474.75" font-family="Times New Roman,serif" font-size="14.00">Color: 3::BN: 4</text>
<text text-anchor="middle" x="518.21" y="-2459.75" font-family="Times New Roman,serif" font-size="14.00">Pasos: 13::Atendido V1</text>
</g>
<!-- C20&#45;&gt;C21 -->
<g id="edge24" class="edge">
<title>C20&#45;&gt;C21</title>
<path fill="none" stroke="black" d="M518.21,-2551.82C518.21,-2543.65 518.21,-2534.87 518.21,-2526.34"/>
<polygon fill="black" stroke="black" points="521.71,-2526.12 518.21,-2516.12 514.71,-2526.12 521.71,-2526.12"/>
</g>
<!-- C22 -->
<g id="node26" class="node">
<title>C22</title>
<ellipse fill="none" stroke="black" cx="518.21" cy="-2367.5" rx="105.22" ry="37.45"/>
<text text-anchor="middle" x="518.21" y="-2378.8" font-family="Times New Roman,serif" font-size="14.00">Whitney Clayton</text>
<text text-anchor="middle" x="518.21" y="-2363.8" font-family="Times New Roman,serif" font-size="14.00">Color: 0::BN: 4</text>
<text text-anchor="middle" x="518.21" y="-2348.8" font-family="Times New Roman,serif" font-size="14.00">Pasos: 10::Atendido V2</text>
</g>
<!-- C21&#45;&gt;C22 -->
<g id="edge25" class="edge">
<title>C21&#45;&gt;C22</title>
<path fill="none" stroke="black" d="M518.21,-2440.87C518.21,-2432.69 518.21,-2423.91 518.21,-2415.39"/>
<polygon fill="black" stroke="black" points="521.71,-2415.17 518.21,-2405.17 514.71,-2415.17 521.71,-2415.17"/>
</g>
<!-- C23 -->
<g id="node27" class="node">
<title>C23</title>
<ellipse fill="none" stroke="black" cx="518.21" cy="-2256.54" rx="100.32" ry="37.45"/>
<text text-anchor="middle" x="518.21" y="-2267.84" font-family="Times New Roman,serif" font-size="14.00">Ellison Hood</text>
<text text-anchor="middle" x="518.21" y="-2252.84" font-family="Times New Roman,serif" font-size="14.00">Color: 3::BN: 0</text>
<text text-anchor="middle" x="518.21" y="-2237.84" font-family="Times New Roman,serif" font-size="14.00">Pasos: 9::Atendido V3</text>
</g>
<!-- C22&#45;&gt;C23 -->
<g id="edge26" class="edge">
<title>C22&#45;&gt;C23</title>
<path fill="none" stroke="black" d="M518.21,-2329.91C518.21,-2321.74 518.21,-2312.96 518.21,-2304.43"/>
<polygon fill="black" stroke="black" points="521.71,-2304.21 518.21,-2294.21 514.71,-2304.21 521.71,-2304.21"/>
</g>
<!-- C24 -->
<g id="node28" class="node">
<title>C24</title>
<ellipse fill="none" stroke="black" cx="518.21" cy="-2145.59" rx="105.22" ry="37.45"/>
<text text-anchor="middle" x="518.21" y="-2156.89" font-family="Times New Roman,serif" font-size="14.00">Heidi Lowery</text>
<text text-anchor="middle" x="518.21" y="-2141.89" font-family="Times New Roman,serif" font-size="14.00">Color: 4::BN: 2</text>
<text text-anchor="middle" x="518.21" y="-2126.89" font-family="Times New Roman,serif" font-size="14.00">Pasos: 12::Atendido V1</text>
</g>
<!-- C23&#45;&gt;C24 -->
<g id="edge27" class="edge">
<title>C23&#45;&gt;C24</title>
<path fill="none" stroke="black" d="M518.21,-2218.96C518.21,-2210.79 518.21,-2202.01 518.21,-2193.48"/>
<polygon fill="black" stroke="black" points="521.71,-2193.26 518.21,-2183.26 514.71,-2193.26 521.71,-2193.26"/>
</g>
<!-- C25 -->
<g id="node29" class="node">
<title>C25</title>
<ellipse fill="none" stroke="black" cx="518.21" cy="-2034.64" rx="100.32" ry="37.45"/>
<text text-anchor="middle" x="518.21" y="-2045.94" font-family="Times New Roman,serif" font-size="14.00">Andrews Vance</text>
<text text-anchor="middle" x="518.21" y="-2030.94" font-family="Times New Roman,serif" font-size="14.00">Color: 2::BN: 1</text>
<text text-anchor="middle" x="518.21" y="-2015.94" font-family="Times New Roman,serif" font-size="14.00">Pasos: 9::Atendido V3</text>
</g>
<!-- C24&#45;&gt;C25 -->
<g id="edge28" class="edge">
<title>C24&#45;&gt;C25</title>
<path fill="none" stroke="black" d="M518.21,-2108.01C518.21,-2099.83 518.21,-2091.05 518.21,-2082.53"/>
<polygon fill="black" stroke="black" points="521.71,-2082.31 518.21,-2072.31 514.71,-2082.31 521.71,-2082.31"/>
</g>
<!-- C26 -->
<g id="node30" class="node">
<title>C26</title>
<ellipse fill="none" stroke="black" cx="518.21" cy="-1923.68" rx="105.22" ry="37.45"/>
<text text-anchor="middle" x="518.21" y="-1934.98" font-family="Times New Roman,serif" font-size="14.00">Dixie Howard</text>
<text text-anchor="middle" x="518.21" y="-1919.98" font-family="Times New Roman,serif" font-size="14.00">Color: 0::BN: 4</text>
<text text-anchor="middle" x="518.21" y="-1904.98" font-family="Times New Roman,serif" font-size="14.00">Pasos: 10::Atendido V2</text>
</g>
<!-- C25&#45;&gt;C26 -->
<g id="edge29" class="edge">
<title>C25&#45;&gt;C26</title>
<path fill="none" stroke="black" d="M518.21,-1997.05C518.21,-1988.88 518.21,-1980.1 518.21,-1971.57"/>
<polygon fill="black" stroke="black" points="521.71,-1971.35 518.21,-1961.35 514.71,-1971.35 521.71,-1971.35"/>
</g>
<!-- C27 -->
<g id="node31" class="node">
<title>C27</title>
<ellipse fill="none" stroke="black" cx="518.21" cy="-1812.73" rx="100.32" ry="37.45"/>
<text text-anchor="middle" x="518.21" y="-1824.03" font-family="Times New Roman,serif" font-size="14.00">Mabel Nicholson</text>
<text text-anchor="middle" x="518.21" y="-1809.03" font-family="Times New Roman,serif" font-size="14.00">Color: 2::BN: 0</text>
<text text-anchor="middle" x="518.21" y="-1794.03" font-family="Times New Roman,serif" font-size="14.00">Pasos: 8::Atendido V2</text>
</g>
<!-- C26&#45;&gt;C27 -->
<g id="edge30" class="edge">
<title>C26&#45;&gt;C27</title>
<path fill="none" stroke="black" d="M518.21,-1886.1C518.21,-1877.93 518.21,-1869.15 518.21,-1860.62"/>
<polygon fill="black" stroke="black" points="521.71,-1860.4 518.21,-1850.4 514.71,-1860.4 521.71,-1860.4"/>
</g>
<!-- C28 -->
<g id="node32" class="node">
<title>C28</title>
<ellipse fill="none" stroke="black" cx="518.21" cy="-1701.78" rx="105.22" ry="37.45"/>
<text text-anchor="middle" x="518.21" y="-1713.08" font-family="Times New Roman,serif" font-size="14.00">Maggie Levine</text>
<text text-anchor="middle" x="518.21" y="-1698.08" font-family="Times New Roman,serif" font-size="14.00">Color: 4::BN: 2</text>
<text text-anchor="middle" x="518.21" y="-1683.08" font-family="Times New Roman,serif" font-size="14.00">Pasos: 12::Atendido V1</text>
</g>
<!-- C27&#45;&gt;C28 -->
<g id="edge31" class="edge">
<title>C27&#45;&gt;C28</title>
<path fill="none" stroke="black" d="M518.21,-1775.15C518.21,-1766.97 518.21,-1758.19 518.21,-1749.67"/>
<polygon fill="black" stroke="black" points="521.71,-1749.45 518.21,-1739.45 514.71,-1749.45 521.71,-1749.45"/>
</g>
<!-- C29 -->
<g id="node33" class="node">
<title>C29</title>
<ellipse fill="none" stroke="black" cx="518.21" cy="-1590.82" rx="105.22" ry="37.45"/>
<text text-anchor="middle" x="518.21" y="-1602.12" font-family="Times New Roman,serif" font-size="14.00">Erma Barron</text>
<text text-anchor="middle" x="518.21" y="-1587.12" font-family="Times New Roman,serif" font-size="14.00">Color: 1::BN: 4</text>
<text text-anchor="middle" x="518.21" y="-1572.12" font-family="Times New Roman,serif" font-size="14.00">Pasos: 11::Atendido V3</text>
</g>
<!-- C28&#45;&gt;C29 -->
<g id="edge32" class="edge">
<title>C28&#45;&gt;C29</title>
<path fill="none" stroke="black" d="M518.21,-1664.19C518.21,-1656.02 518.21,-1647.24 518.21,-1638.71"/>
<polygon fill="black" stroke="black" points="521.71,-1638.49 518.21,-1628.49 514.71,-1638.5 521.71,-1638.49"/>
</g>
<!-- C30 -->
<g id="node34" class="node">
<title>C30</title>
<ellipse fill="none" stroke="black" cx="518.21" cy="-1479.87" rx="100.32" ry="37.45"/>
<text text-anchor="middle" x="518.21" y="-1491.17" font-family="Times New Roman,serif" font-size="14.00">Witt Forbes</text>
<text text-anchor="middle" x="518.21" y="-1476.17" font-family="Times New Roman,serif" font-size="14.00">Color: 1::BN: 0</text>
<text text-anchor="middle" x="518.21" y="-1461.17" font-family="Times New Roman,serif" font-size="14.00">Pasos: 7::Atendido V2</text>
</g>
<!-- C29&#45;&gt;C30 -->
<g id="edge33" class="edge">
<title>C29&#45;&gt;C30</title>
<path fill="none" stroke="black" d="M518.21,-1553.24C518.21,-1545.07 518.21,-1536.29 518.21,-1527.76"/>
<polygon fill="black" stroke="black" points="521.71,-1527.54 518.21,-1517.54 514.71,-1527.54 521.71,-1527.54"/>
</g>
<!-- C31 -->
<g id="node35" class="node">
<title>C31</title>
<ellipse fill="none" stroke="black" cx="518.21" cy="-1368.92" rx="100.32" ry="37.45"/>
<text text-anchor="middle" x="518.21" y="-1380.22" font-family="Times New Roman,serif" font-size="14.00">Maddox Frazier</text>
<text text-anchor="middle" x="518.21" y="-1365.22" font-family="Times New Roman,serif" font-size="14.00">Color: 1::BN: 1</text>
<text text-anchor="middle" x="518.21" y="-1350.22" font-family="Times New Roman,serif" font-size="14.00">Pasos: 8::Atendido V3</text>
</g>
<!-- C30&#45;&gt;C31 -->
<g id="edge34" class="edge">
<title>C30&#45;&gt;C31</title>
<path fill="none" stroke="black" d="M518.21,-1442.29C518.21,-1434.11 518.21,-1425.33 518.21,-1416.81"/>
<polygon fill="black" stroke="black" points="521.71,-1416.59 518.21,-1406.59 514.71,-1416.59 521.71,-1416.59"/>
</g>
<!-- C32 -->
<g id="node36" class="node">
<title>C32</title>
<ellipse fill="none" stroke="black" cx="518.21" cy="-1257.96" rx="105.22" ry="37.45"/>
<text text-anchor="middle" x="518.21" y="-1269.26" font-family="Times New Roman,serif" font-size="14.00">Moore Horton</text>
<text text-anchor="middle" x="518.21" y="-1254.26" font-family="Times New Roman,serif" font-size="14.00">Color: 0::BN: 4</text>
<text text-anchor="middle" x="518.21" y="-1239.26" font-family="Times New Roman,serif" font-size="14.00">Pasos: 10::Atendido V2</text>
</g>
<!-- C31&#45;&gt;C32 -->
<g id="edge35" class="edge">
<title>C31&#45;&gt;C32</title>
<path fill="none" stroke="black" d="M518.21,-1331.33C518.21,-1323.16 518.21,-1314.38 518.21,-1305.85"/>
<polygon fill="black" stroke="black" points="521.71,-1305.64 518.21,-1295.64 514.71,-1305.64 521.71,-1305.64"/>
</g>
<!-- C33 -->
<g id="node37" class="node">
<title>C33</title>
<ellipse fill="none" stroke="black" cx="518.21" cy="-1147.01" rx="105.22" ry="37.45"/>
<text text-anchor="middle" x="518.21" y="-1158.31" font-family="Times New Roman,serif" font-size="14.00">Bennett Malone</text>
<text text-anchor="middle" x="518.21" y="-1143.31" font-family="Times New Roman,serif" font-size="14.00">Color: 4::BN: 2</text>
<text text-anchor="middle" x="518.21" y="-1128.31" font-family="Times New Roman,serif" font-size="14.00">Pasos: 12::Atendido V1</text>
</g>
<!-- C32&#45;&gt;C33 -->
<g id="edge36" class="edge">
<title>C32&#45;&gt;C33</title>
<path fill="none" stroke="black" d="M518.21,-1220.38C518.21,-1212.21 518.21,-1203.43 518.21,-1194.9"/>
<polygon fill="black" stroke="black" points="521.71,-1194.68 518.21,-1184.68 514.71,-1194.68 521.71,-1194.68"/>
</g>
<!-- C34 -->
<g id="node38" class="node">
<title>C34</title>
<ellipse fill="none" stroke="black" cx="518.21" cy="-1036.06" rx="100.32" ry="37.45"/>
<text text-anchor="middle" x="518.21" y="-1047.36" font-family="Times New Roman,serif" font-size="14.00">Hatfield Sykes</text>
<text text-anchor="middle" x="518.21" y="-1032.36" font-family="Times New Roman,serif" font-size="14.00">Color: 1::BN: 0</text>
<text text-anchor="middle" x="518.21" y="-1017.36" font-family="Times New Roman,serif" font-size="14.00">Pasos: 7::Atendido V3</text>
</g>
<!-- C33&#45;&gt;C34 -->
<g id="edge37" class="edge">
<title>C33&#45;&gt;C34</title>
<path fill="none" stroke="black" d="M518.21,-1109.43C518.21,-1101.25 518.21,-1092.47 518.21,-1083.95"/>
<polygon fill="black" stroke="black" points="521.71,-1083.73 518.21,-1073.73 514.71,-1083.73 521.71,-1083.73"/>
</g>
<!-- C35 -->
<g id="node39" class="node">
<title>C35</title>
<ellipse fill="none" stroke="black" cx="518.21" cy="-925.1" rx="100.32" ry="37.45"/>
<text text-anchor="middle" x="518.21" y="-936.4" font-family="Times New Roman,serif" font-size="14.00">Garza York</text>
<text text-anchor="middle" x="518.21" y="-921.4" font-family="Times New Roman,serif" font-size="14.00">Color: 2::BN: 0</text>
<text text-anchor="middle" x="518.21" y="-906.4" font-family="Times New Roman,serif" font-size="14.00">Pasos: 8::Atendido V2</text>
</g>
<!-- C34&#45;&gt;C35 -->
<g id="edge38" class="edge">
<title>C34&#45;&gt;C35</title>
<path fill="none" stroke="black" d="M518.21,-998.47C518.21,-990.3 518.21,-981.52 518.21,-972.99"/>
<polygon fill="black" stroke="black" points="521.71,-972.78 518.21,-962.78 514.71,-972.78 521.71,-972.78"/>
</g>
<!-- C36 -->
<g id="node40" class="node">
<title>C36</title>
<ellipse fill="none" stroke="black" cx="518.21" cy="-814.15" rx="100.32" ry="37.45"/>
<text text-anchor="middle" x="518.21" y="-825.45" font-family="Times New Roman,serif" font-size="14.00">Macdonald Murray</text>
<text text-anchor="middle" x="518.21" y="-810.45" font-family="Times New Roman,serif" font-size="14.00">Color: 1::BN: 1</text>
<text text-anchor="middle" x="518.21" y="-795.45" font-family="Times New Roman,serif" font-size="14.00">Pasos: 8::Atendido V1</text>
</g>
<!-- C35&#45;&gt;C36 -->
<g id="edge39" class="edge">
<title>C35&#45;&gt;C36</title>
<path fill="none" stroke="black" d="M518.21,-887.52C518.21,-879.35 518.21,-870.57 518.21,-862.04"/>
<polygon fill="black" stroke="black" points="521.71,-861.82 518.21,-851.82 514.71,-861.82 521.71,-861.82"/>
</g>
<!-- C37 -->
<g id="node41" class="node">
<title>C37</title>
<ellipse fill="none" stroke="black" cx="518.21" cy="-703.2" rx="100.32" ry="37.45"/>
<text text-anchor="middle" x="518.21" y="-714.5" font-family="Times New Roman,serif" font-size="14.00">Romero Sanders</text>
<text text-anchor="middle" x="518.21" y="-699.5" font-family="Times New Roman,serif" font-size="14.00">Color: 2::BN: 0</text>
<text text-anchor="middle" x="518.21" y="-684.5" font-family="Times New Roman,serif" font-size="14.00">Pasos: 8::Atendido V2</text>
</g>
<!-- C36&#45;&gt;C37 -->
<g id="edge40" class="edge">
<title>C36&#45;&gt;C37</title>
<path fill="none" stroke="black" d="M518.21,-776.57C518.21,-768.39 518.21,-759.61 518.21,-751.09"/>
<polygon fill="black" stroke="black" points="521.71,-750.87 518.21,-740.87 514.71,-750.87 521.71,-750.87"/>
</g>
<!-- C38 -->
<g id="node42" class="node">
<title>C38</title>
<ellipse fill="none" stroke="black" cx="518.21" cy="-592.24" rx="100.32" ry="37.45"/>
<text text-anchor="middle" x="518.21" y="-603.54" font-family="Times New Roman,serif" font-size="14.00">Etta Blake</text>
<text text-anchor="middle" x="518.21" y="-588.54" font-family="Times New Roman,serif" font-size="14.00">Color: 3::BN: 0</text>
<text text-anchor="middle" x="518.21" y="-573.54" font-family="Times New Roman,serif" font-size="14.00">Pasos: 9::Atendido V3</text>
</g>
<!-- C37&#45;&gt;C38 -->
<g id="edge41" class="edge">
<title>C37&#45;&gt;C38</title>
<path fill="none" stroke="black" d="M518.21,-665.61C518.21,-657.44 518.21,-648.66 518.21,-640.13"/>
<polygon fill="black" stroke="black" points="521.71,-639.92 518.21,-629.92 514.71,-639.92 521.71,-639.92"/>
</g>
<!-- C39 -->
<g id="node43" class="node">
<title>C39</title>
<ellipse fill="none" stroke="black" cx="518.21" cy="-481.29" rx="101.65" ry="37.45"/>
<text text-anchor="middle" x="518.21" y="-492.59" font-family="Times New Roman,serif" font-size="14.00">Washington Dickerson</text>
<text text-anchor="middle" x="518.21" y="-477.59" font-family="Times New Roman,serif" font-size="14.00">Color: 3::BN: 0</text>
<text text-anchor="middle" x="518.21" y="-462.59" font-family="Times New Roman,serif" font-size="14.00">Pasos: 9::Atendido V2</text>
</g>
<!-- C38&#45;&gt;C39 -->
<g id="edge42" class="edge">
<title>C38&#45;&gt;C39</title>
<path fill="none" stroke="black" d="M518.21,-554.66C518.21,-546.49 518.21,-537.71 518.21,-529.18"/>
<polygon fill="black" stroke="black" points="521.71,-528.96 518.21,-518.96 514.71,-528.96 521.71,-528.96"/>
</g>
<!-- C40 -->
<g id="node44" class="node">
<title>C40</title>
<ellipse fill="none" stroke="black" cx="518.21" cy="-370.34" rx="105.22" ry="37.45"/>
<text text-anchor="middle" x="518.21" y="-381.64" font-family="Times New Roman,serif" font-size="14.00">Vicky Jimenez</text>
<text text-anchor="middle" x="518.21" y="-366.64" font-family="Times New Roman,serif" font-size="14.00">Color: 4::BN: 4</text>
<text text-anchor="middle" x="518.21" y="-351.64" font-family="Times New Roman,serif" font-size="14.00">Pasos: 14::Atendido V1</text>
</g>
<!-- C39&#45;&gt;C40 -->
<g id="edge43" class="edge">
<title>C39&#45;&gt;C40</title>
<path fill="none" stroke="black" d="M518.21,-443.71C518.21,-435.53 518.21,-426.75 518.21,-418.23"/>
<polygon fill="black" stroke="black" points="521.71,-418.01 518.21,-408.01 514.71,-418.01 521.71,-418.01"/>
</g>
<!-- C41 -->
<g id="node45" class="node">
<title>C41</title>
<ellipse fill="none" stroke="black" cx="518.21" cy="-259.38" rx="105.22" ry="37.45"/>
<text text-anchor="middle" x="518.21" y="-270.68" font-family="Times New Roman,serif" font-size="14.00">Ethel Cortez</text>
<text text-anchor="middle" x="518.21" y="-255.68" font-family="Times New Roman,serif" font-size="14.00">Color: 3::BN: 2</text>
<text text-anchor="middle" x="518.21" y="-240.68" font-family="Times New Roman,serif" font-size="14.00">Pasos: 11::Atendido V3</text>
</g>
<!-- C40&#45;&gt;C41 -->
<g id="edge44" class="edge">
<title>C40&#45;&gt;C41</title>
<path fill="none" stroke="black" d="M518.21,-332.75C518.21,-324.58 518.21,-315.8 518.21,-307.27"/>
<polygon fill="black" stroke="black" points="521.71,-307.06 518.21,-297.06 514.71,-307.06 521.71,-307.06"/>
</g>
<!-- C42 -->
<g id="node46" class="node">
<title>C42</title>
<ellipse fill="none" stroke="black" cx="518.21" cy="-148.43" rx="105.22" ry="37.45"/>
<text text-anchor="middle" x="518.21" y="-159.73" font-family="Times New Roman,serif" font-size="14.00">Christa Mendoza</text>
<text text-anchor="middle" x="518.21" y="-144.73" font-family="Times New Roman,serif" font-size="14.00">Color: 2::BN: 3</text>
<text text-anchor="middle" x="518.21" y="-129.73" font-family="Times New Roman,serif" font-size="14.00">Pasos: 11::Atendido V2</text>
</g>
<!-- C41&#45;&gt;C42 -->
<g id="edge45" class="edge">
<title>C41&#45;&gt;C42</title>
<path fill="none" stroke="black" d="M518.21,-221.8C518.21,-213.63 518.21,-204.85 518.21,-196.32"/>
<polygon fill="black" stroke="black" points="521.71,-196.1 518.21,-186.1 514.71,-196.1 521.71,-196.1"/>
</g>
<!-- C43 -->
<g id="node47" class="node">
<title>C43</title>
<ellipse fill="none" stroke="black" cx="584.21" cy="-37.48" rx="100.32" ry="37.45"/>
<text text-anchor="middle" x="584.21" y="-48.78" font-family="Times New Roman,serif" font-size="14.00">Alyce Alford</text>
<text text-anchor="middle" x="584.21" y="-33.78" font-family="Times New Roman,serif" font-size="14.00">Color: 3::BN: 0</text>
<text text-anchor="middle" x="584.21" y="-18.78" font-family="Times New Roman,serif" font-size="14.00">Pasos: 9::Atendido V1</text>
</g>
<!-- C42&#45;&gt;C43 -->
<g id="edge46" class="edge">
<title>C42&#45;&gt;C43</title>
<path fill="none" stroke="black" d="M540,-111.45C545.47,-102.43 551.39,-92.65 557.08,-83.26"/>
<polygon fill="black" stroke="black" points="560.25,-84.78 562.44,-74.42 554.26,-81.16 560.25,-84.78"/>
</g>
<!-- C43&#45;&gt;C1 -->
<g id="edge47" class="edge">
<title>C43&#45;&gt;C1</title>
<path fill="none" stroke="black" d="M612.1,-73.58C619.8,-84.92 627.36,-97.94 632.21,-110.95 655.27,-172.86 651.21,-192.32 651.21,-258.38 651.21,-4476.61 651.21,-4476.61 651.21,-4476.61 651.21,-4542.86 651.41,-4561.62 629.21,-4624.04 625.82,-4633.55 621.14,-4643.2 616.1,-4652.22"/>
<polygon fill="black" stroke="black" points="613,-4650.6 610.98,-4661.01 619.04,-4654.13 613,-4650.6"/>
</g>
</g>
</svg>
