<?xml version="1.0" encoding="UTF-8" standalone="no"?>
<!DOCTYPE svg PUBLIC "-//W3C//DTD SVG 1.1//EN"
 "http://www.w3.org/Graphics/SVG/1.1/DTD/svg11.dtd">
<!-- Generated by graphviz version 2.50.0 (20211204.2007)
 -->
<!-- Pages: 1 -->
<svg width="640pt" height="5187pt"
 viewBox="0.00 0.00 639.57 5186.81" xmlns="http://www.w3.org/2000/svg" xmlns:xlink="http://www.w3.org/1999/xlink">
<g id="graph0" class="graph" transform="scale(1 1) rotate(0) translate(4 5182.81)">
<polygon fill="white" stroke="transparent" points="-4,4 -4,-5182.81 635.57,-5182.81 635.57,4 -4,4"/>
<!-- V1 -->
<g id="node1" class="node">
<title>V1</title>
<ellipse fill="none" stroke="black" cx="120.21" cy="-5141.33" rx="33.6" ry="18"/>
<text text-anchor="middle" x="120.21" y="-5137.63" font-family="Times New Roman,serif" font-size="14.00">Vacia </text>
</g>
<!-- V2 -->
<g id="node2" class="node">
<title>V2</title>
<ellipse fill="none" stroke="black" cx="120.21" cy="-5030.38" rx="33.6" ry="18"/>
<text text-anchor="middle" x="120.21" y="-5026.68" font-family="Times New Roman,serif" font-size="14.00">Vacia </text>
</g>
<!-- V1&#45;&gt;V2 -->
<g id="edge1" class="edge">
<title>V1&#45;&gt;V2</title>
<path fill="none" stroke="black" d="M120.21,-5123.31C120.21,-5106.06 120.21,-5079.1 120.21,-5058.83"/>
<polygon fill="black" stroke="black" points="123.71,-5058.64 120.21,-5048.64 116.71,-5058.64 123.71,-5058.64"/>
</g>
<!-- V3 -->
<g id="node3" class="node">
<title>V3</title>
<ellipse fill="none" stroke="black" cx="120.21" cy="-4919.42" rx="120.42" ry="26.74"/>
<text text-anchor="middle" x="120.21" y="-4923.22" font-family="Times New Roman,serif" font-size="14.00">Shana Burke</text>
<text text-anchor="middle" x="120.21" y="-4908.22" font-family="Times New Roman,serif" font-size="14.00">Color: 0::Blanco y Negro: 4</text>
</g>
<!-- V2&#45;&gt;V3 -->
<g id="edge2" class="edge">
<title>V2&#45;&gt;V3</title>
<path fill="none" stroke="black" d="M120.21,-5012.35C120.21,-4997.51 120.21,-4975.47 120.21,-4956.69"/>
<polygon fill="black" stroke="black" points="123.71,-4956.66 120.21,-4946.66 116.71,-4956.66 123.71,-4956.66"/>
</g>
<!-- E1 -->
<g id="node4" class="node">
<title>E1</title>
<ellipse fill="none" stroke="black" cx="243.21" cy="-5141.33" rx="70.92" ry="26.74"/>
<text text-anchor="middle" x="243.21" y="-5145.13" font-family="Times New Roman,serif" font-size="14.00">Durham Logan</text>
<text text-anchor="middle" x="243.21" y="-5130.13" font-family="Times New Roman,serif" font-size="14.00">Pasos:8</text>
</g>
<!-- E2 -->
<g id="node5" class="node">
<title>E2</title>
<ellipse fill="none" stroke="black" cx="243.21" cy="-5030.38" rx="67.76" ry="26.74"/>
<text text-anchor="middle" x="243.21" y="-5034.18" font-family="Times New Roman,serif" font-size="14.00">Haley Rosario</text>
<text text-anchor="middle" x="243.21" y="-5019.18" font-family="Times New Roman,serif" font-size="14.00">Pasos:7</text>
</g>
<!-- E1&#45;&gt;E2 -->
<g id="edge3" class="edge">
<title>E1&#45;&gt;E2</title>
<path fill="none" stroke="black" d="M225.81,-5115.06C222.68,-5100.62 222.13,-5082.3 224.14,-5066.48"/>
<polygon fill="black" stroke="black" points="227.61,-5066.95 225.84,-5056.51 220.71,-5065.78 227.61,-5066.95"/>
</g>
<!-- E1&#45;&gt;E2 -->
<g id="edge6" class="edge">
<title>E1&#45;&gt;E2</title>
<path fill="none" stroke="black" d="M260.61,-5115.06C263.73,-5100.62 264.29,-5082.3 262.27,-5066.48"/>
<polygon fill="black" stroke="black" points="265.71,-5065.78 260.58,-5056.51 258.8,-5066.95 265.71,-5065.78"/>
</g>
<!-- E2&#45;&gt;E1 -->
<g id="edge4" class="edge">
<title>E2&#45;&gt;E1</title>
<path fill="none" stroke="black" d="M237.35,-5057.39C236.38,-5071.43 236.2,-5088.98 236.82,-5104.32"/>
<polygon fill="black" stroke="black" points="233.33,-5104.71 237.37,-5114.51 240.32,-5104.33 233.33,-5104.71"/>
</g>
<!-- E2&#45;&gt;E1 -->
<g id="edge5" class="edge">
<title>E2&#45;&gt;E1</title>
<path fill="none" stroke="black" d="M249.06,-5057.39C250.04,-5071.43 250.22,-5088.98 249.6,-5104.32"/>
<polygon fill="black" stroke="black" points="246.1,-5104.33 249.05,-5114.51 253.08,-5104.71 246.1,-5104.33"/>
</g>
<!-- C1 -->
<g id="node6" class="node">
<title>C1</title>
<ellipse fill="none" stroke="black" cx="494.21" cy="-5141.33" rx="100.32" ry="37.45"/>
<text text-anchor="middle" x="494.21" y="-5152.63" font-family="Times New Roman,serif" font-size="14.00">Noelle Morse</text>
<text text-anchor="middle" x="494.21" y="-5137.63" font-family="Times New Roman,serif" font-size="14.00">Color: 0::BN: 1</text>
<text text-anchor="middle" x="494.21" y="-5122.63" font-family="Times New Roman,serif" font-size="14.00">Pasos: 7::Atendido V2</text>
</g>
<!-- C2 -->
<g id="node7" class="node">
<title>C2</title>
<ellipse fill="none" stroke="black" cx="461.21" cy="-5030.38" rx="100.32" ry="37.45"/>
<text text-anchor="middle" x="461.21" y="-5041.68" font-family="Times New Roman,serif" font-size="14.00">Long Meyer</text>
<text text-anchor="middle" x="461.21" y="-5026.68" font-family="Times New Roman,serif" font-size="14.00">Color: 3::BN: 0</text>
<text text-anchor="middle" x="461.21" y="-5011.68" font-family="Times New Roman,serif" font-size="14.00">Pasos: 9::Atendido V2</text>
</g>
<!-- C1&#45;&gt;C2 -->
<g id="edge7" class="edge">
<title>C1&#45;&gt;C2</title>
<path fill="none" stroke="black" d="M483.22,-5104.05C480.66,-5095.59 477.9,-5086.48 475.23,-5077.65"/>
<polygon fill="black" stroke="black" points="478.51,-5076.42 472.26,-5067.87 471.81,-5078.45 478.51,-5076.42"/>
</g>
<!-- C3 -->
<g id="node8" class="node">
<title>C3</title>
<ellipse fill="none" stroke="black" cx="458.21" cy="-4919.42" rx="105.22" ry="37.45"/>
<text text-anchor="middle" x="458.21" y="-4930.72" font-family="Times New Roman,serif" font-size="14.00">Geraldine Pierce</text>
<text text-anchor="middle" x="458.21" y="-4915.72" font-family="Times New Roman,serif" font-size="14.00">Color: 3::BN: 1</text>
<text text-anchor="middle" x="458.21" y="-4900.72" font-family="Times New Roman,serif" font-size="14.00">Pasos: 10::Atendido V1</text>
</g>
<!-- C2&#45;&gt;C3 -->
<g id="edge8" class="edge">
<title>C2&#45;&gt;C3</title>
<path fill="none" stroke="black" d="M460.2,-4992.79C459.98,-4984.62 459.73,-4975.84 459.5,-4967.31"/>
<polygon fill="black" stroke="black" points="462.99,-4966.99 459.22,-4957.09 455.99,-4967.19 462.99,-4966.99"/>
</g>
<!-- C4 -->
<g id="node9" class="node">
<title>C4</title>
<ellipse fill="none" stroke="black" cx="458.21" cy="-4808.47" rx="100.32" ry="37.45"/>
<text text-anchor="middle" x="458.21" y="-4819.77" font-family="Times New Roman,serif" font-size="14.00">Gay Mcmillan</text>
<text text-anchor="middle" x="458.21" y="-4804.77" font-family="Times New Roman,serif" font-size="14.00">Color: 0::BN: 1</text>
<text text-anchor="middle" x="458.21" y="-4789.77" font-family="Times New Roman,serif" font-size="14.00">Pasos: 7::Atendido V1</text>
</g>
<!-- C3&#45;&gt;C4 -->
<g id="edge9" class="edge">
<title>C3&#45;&gt;C4</title>
<path fill="none" stroke="black" d="M458.21,-4881.84C458.21,-4873.66 458.21,-4864.89 458.21,-4856.36"/>
<polygon fill="black" stroke="black" points="461.71,-4856.14 458.21,-4846.14 454.71,-4856.14 461.71,-4856.14"/>
</g>
<!-- C5 -->
<g id="node10" class="node">
<title>C5</title>
<ellipse fill="none" stroke="black" cx="458.21" cy="-4697.52" rx="105.22" ry="37.45"/>
<text text-anchor="middle" x="458.21" y="-4708.82" font-family="Times New Roman,serif" font-size="14.00">Gutierrez Casey</text>
<text text-anchor="middle" x="458.21" y="-4693.82" font-family="Times New Roman,serif" font-size="14.00">Color: 3::BN: 4</text>
<text text-anchor="middle" x="458.21" y="-4678.82" font-family="Times New Roman,serif" font-size="14.00">Pasos: 13::Atendido V3</text>
</g>
<!-- C4&#45;&gt;C5 -->
<g id="edge10" class="edge">
<title>C4&#45;&gt;C5</title>
<path fill="none" stroke="black" d="M458.21,-4770.89C458.21,-4762.71 458.21,-4753.93 458.21,-4745.41"/>
<polygon fill="black" stroke="black" points="461.71,-4745.19 458.21,-4735.19 454.71,-4745.19 461.71,-4745.19"/>
</g>
<!-- C6 -->
<g id="node11" class="node">
<title>C6</title>
<ellipse fill="none" stroke="black" cx="458.21" cy="-4586.56" rx="105.22" ry="37.45"/>
<text text-anchor="middle" x="458.21" y="-4597.86" font-family="Times New Roman,serif" font-size="14.00">Nola Winters</text>
<text text-anchor="middle" x="458.21" y="-4582.86" font-family="Times New Roman,serif" font-size="14.00">Color: 3::BN: 1</text>
<text text-anchor="middle" x="458.21" y="-4567.86" font-family="Times New Roman,serif" font-size="14.00">Pasos: 10::Atendido V2</text>
</g>
<!-- C5&#45;&gt;C6 -->
<g id="edge11" class="edge">
<title>C5&#45;&gt;C6</title>
<path fill="none" stroke="black" d="M458.21,-4659.93C458.21,-4651.76 458.21,-4642.98 458.21,-4634.45"/>
<polygon fill="black" stroke="black" points="461.71,-4634.23 458.21,-4624.23 454.71,-4634.23 461.71,-4634.23"/>
</g>
<!-- C7 -->
<g id="node12" class="node">
<title>C7</title>
<ellipse fill="none" stroke="black" cx="458.21" cy="-4475.61" rx="105.22" ry="37.45"/>
<text text-anchor="middle" x="458.21" y="-4486.91" font-family="Times New Roman,serif" font-size="14.00">Pruitt Perez</text>
<text text-anchor="middle" x="458.21" y="-4471.91" font-family="Times New Roman,serif" font-size="14.00">Color: 4::BN: 2</text>
<text text-anchor="middle" x="458.21" y="-4456.91" font-family="Times New Roman,serif" font-size="14.00">Pasos: 12::Atendido V1</text>
</g>
<!-- C6&#45;&gt;C7 -->
<g id="edge12" class="edge">
<title>C6&#45;&gt;C7</title>
<path fill="none" stroke="black" d="M458.21,-4548.98C458.21,-4540.8 458.21,-4532.03 458.21,-4523.5"/>
<polygon fill="black" stroke="black" points="461.71,-4523.28 458.21,-4513.28 454.71,-4523.28 461.71,-4523.28"/>
</g>
<!-- C8 -->
<g id="node13" class="node">
<title>C8</title>
<ellipse fill="none" stroke="black" cx="458.21" cy="-4364.66" rx="100.32" ry="37.45"/>
<text text-anchor="middle" x="458.21" y="-4375.96" font-family="Times New Roman,serif" font-size="14.00">Hudson Lancaster</text>
<text text-anchor="middle" x="458.21" y="-4360.96" font-family="Times New Roman,serif" font-size="14.00">Color: 1::BN: 1</text>
<text text-anchor="middle" x="458.21" y="-4345.96" font-family="Times New Roman,serif" font-size="14.00">Pasos: 8::Atendido V2</text>
</g>
<!-- C7&#45;&gt;C8 -->
<g id="edge13" class="edge">
<title>C7&#45;&gt;C8</title>
<path fill="none" stroke="black" d="M458.21,-4438.03C458.21,-4429.85 458.21,-4421.07 458.21,-4412.55"/>
<polygon fill="black" stroke="black" points="461.71,-4412.33 458.21,-4402.33 454.71,-4412.33 461.71,-4412.33"/>
</g>
<!-- C9 -->
<g id="node14" class="node">
<title>C9</title>
<ellipse fill="none" stroke="black" cx="458.21" cy="-4253.7" rx="105.22" ry="37.45"/>
<text text-anchor="middle" x="458.21" y="-4265" font-family="Times New Roman,serif" font-size="14.00">Roman Branch</text>
<text text-anchor="middle" x="458.21" y="-4250" font-family="Times New Roman,serif" font-size="14.00">Color: 3::BN: 2</text>
<text text-anchor="middle" x="458.21" y="-4235" font-family="Times New Roman,serif" font-size="14.00">Pasos: 11::Atendido V3</text>
</g>
<!-- C8&#45;&gt;C9 -->
<g id="edge14" class="edge">
<title>C8&#45;&gt;C9</title>
<path fill="none" stroke="black" d="M458.21,-4327.07C458.21,-4318.9 458.21,-4310.12 458.21,-4301.59"/>
<polygon fill="black" stroke="black" points="461.71,-4301.37 458.21,-4291.37 454.71,-4301.37 461.71,-4301.37"/>
</g>
<!-- C10 -->
<g id="node15" class="node">
<title>C10</title>
<ellipse fill="none" stroke="black" cx="458.21" cy="-4142.75" rx="100.32" ry="37.45"/>
<text text-anchor="middle" x="458.21" y="-4154.05" font-family="Times New Roman,serif" font-size="14.00">Jolene Mccall</text>
<text text-anchor="middle" x="458.21" y="-4139.05" font-family="Times New Roman,serif" font-size="14.00">Color: 0::BN: 0</text>
<text text-anchor="middle" x="458.21" y="-4124.05" font-family="Times New Roman,serif" font-size="14.00">Pasos: 6::Atendido V2</text>
</g>
<!-- C9&#45;&gt;C10 -->
<g id="edge15" class="edge">
<title>C9&#45;&gt;C10</title>
<path fill="none" stroke="black" d="M458.21,-4216.12C458.21,-4207.95 458.21,-4199.17 458.21,-4190.64"/>
<polygon fill="black" stroke="black" points="461.71,-4190.42 458.21,-4180.42 454.71,-4190.42 461.71,-4190.42"/>
</g>
<!-- C11 -->
<g id="node16" class="node">
<title>C11</title>
<ellipse fill="none" stroke="black" cx="458.21" cy="-4031.8" rx="100.32" ry="37.45"/>
<text text-anchor="middle" x="458.21" y="-4043.1" font-family="Times New Roman,serif" font-size="14.00">Evelyn Fitzgerald</text>
<text text-anchor="middle" x="458.21" y="-4028.1" font-family="Times New Roman,serif" font-size="14.00">Color: 0::BN: 1</text>
<text text-anchor="middle" x="458.21" y="-4013.1" font-family="Times New Roman,serif" font-size="14.00">Pasos: 7::Atendido V1</text>
</g>
<!-- C10&#45;&gt;C11 -->
<g id="edge16" class="edge">
<title>C10&#45;&gt;C11</title>
<path fill="none" stroke="black" d="M458.21,-4105.17C458.21,-4096.99 458.21,-4088.21 458.21,-4079.69"/>
<polygon fill="black" stroke="black" points="461.71,-4079.47 458.21,-4069.47 454.71,-4079.47 461.71,-4079.47"/>
</g>
<!-- C12 -->
<g id="node17" class="node">
<title>C12</title>
<ellipse fill="none" stroke="black" cx="458.21" cy="-3920.84" rx="105.22" ry="37.45"/>
<text text-anchor="middle" x="458.21" y="-3932.14" font-family="Times New Roman,serif" font-size="14.00">Carolyn Harmon</text>
<text text-anchor="middle" x="458.21" y="-3917.14" font-family="Times New Roman,serif" font-size="14.00">Color: 3::BN: 2</text>
<text text-anchor="middle" x="458.21" y="-3902.14" font-family="Times New Roman,serif" font-size="14.00">Pasos: 11::Atendido V3</text>
</g>
<!-- C11&#45;&gt;C12 -->
<g id="edge17" class="edge">
<title>C11&#45;&gt;C12</title>
<path fill="none" stroke="black" d="M458.21,-3994.21C458.21,-3986.04 458.21,-3977.26 458.21,-3968.73"/>
<polygon fill="black" stroke="black" points="461.71,-3968.51 458.21,-3958.51 454.71,-3968.51 461.71,-3968.51"/>
</g>
<!-- C13 -->
<g id="node18" class="node">
<title>C13</title>
<ellipse fill="none" stroke="black" cx="458.21" cy="-3809.89" rx="105.22" ry="37.45"/>
<text text-anchor="middle" x="458.21" y="-3821.19" font-family="Times New Roman,serif" font-size="14.00">Yang Wiggins</text>
<text text-anchor="middle" x="458.21" y="-3806.19" font-family="Times New Roman,serif" font-size="14.00">Color: 1::BN: 4</text>
<text text-anchor="middle" x="458.21" y="-3791.19" font-family="Times New Roman,serif" font-size="14.00">Pasos: 11::Atendido V2</text>
</g>
<!-- C12&#45;&gt;C13 -->
<g id="edge18" class="edge">
<title>C12&#45;&gt;C13</title>
<path fill="none" stroke="black" d="M458.21,-3883.26C458.21,-3875.09 458.21,-3866.31 458.21,-3857.78"/>
<polygon fill="black" stroke="black" points="461.71,-3857.56 458.21,-3847.56 454.71,-3857.56 461.71,-3857.56"/>
</g>
<!-- C14 -->
<g id="node19" class="node">
<title>C14</title>
<ellipse fill="none" stroke="black" cx="458.21" cy="-3698.94" rx="105.22" ry="37.45"/>
<text text-anchor="middle" x="458.21" y="-3710.24" font-family="Times New Roman,serif" font-size="14.00">Polly Rodriguez</text>
<text text-anchor="middle" x="458.21" y="-3695.24" font-family="Times New Roman,serif" font-size="14.00">Color: 3::BN: 2</text>
<text text-anchor="middle" x="458.21" y="-3680.24" font-family="Times New Roman,serif" font-size="14.00">Pasos: 11::Atendido V1</text>
</g>
<!-- C13&#45;&gt;C14 -->
<g id="edge19" class="edge">
<title>C13&#45;&gt;C14</title>
<path fill="none" stroke="black" d="M458.21,-3772.31C458.21,-3764.13 458.21,-3755.35 458.21,-3746.83"/>
<polygon fill="black" stroke="black" points="461.71,-3746.61 458.21,-3736.61 454.71,-3746.61 461.71,-3746.61"/>
</g>
<!-- C15 -->
<g id="node20" class="node">
<title>C15</title>
<ellipse fill="none" stroke="black" cx="458.21" cy="-3587.98" rx="100.32" ry="37.45"/>
<text text-anchor="middle" x="458.21" y="-3599.28" font-family="Times New Roman,serif" font-size="14.00">Douglas Dominguez</text>
<text text-anchor="middle" x="458.21" y="-3584.28" font-family="Times New Roman,serif" font-size="14.00">Color: 0::BN: 3</text>
<text text-anchor="middle" x="458.21" y="-3569.28" font-family="Times New Roman,serif" font-size="14.00">Pasos: 9::Atendido V3</text>
</g>
<!-- C14&#45;&gt;C15 -->
<g id="edge20" class="edge">
<title>C14&#45;&gt;C15</title>
<path fill="none" stroke="black" d="M458.21,-3661.35C458.21,-3653.18 458.21,-3644.4 458.21,-3635.87"/>
<polygon fill="black" stroke="black" points="461.71,-3635.65 458.21,-3625.65 454.71,-3635.65 461.71,-3635.65"/>
</g>
<!-- C16 -->
<g id="node21" class="node">
<title>C16</title>
<ellipse fill="none" stroke="black" cx="458.21" cy="-3477.03" rx="105.22" ry="37.45"/>
<text text-anchor="middle" x="458.21" y="-3488.33" font-family="Times New Roman,serif" font-size="14.00">Faith Hopkins</text>
<text text-anchor="middle" x="458.21" y="-3473.33" font-family="Times New Roman,serif" font-size="14.00">Color: 1::BN: 3</text>
<text text-anchor="middle" x="458.21" y="-3458.33" font-family="Times New Roman,serif" font-size="14.00">Pasos: 10::Atendido V1</text>
</g>
<!-- C15&#45;&gt;C16 -->
<g id="edge21" class="edge">
<title>C15&#45;&gt;C16</title>
<path fill="none" stroke="black" d="M458.21,-3550.4C458.21,-3542.23 458.21,-3533.45 458.21,-3524.92"/>
<polygon fill="black" stroke="black" points="461.71,-3524.7 458.21,-3514.7 454.71,-3524.7 461.71,-3524.7"/>
</g>
<!-- C17 -->
<g id="node22" class="node">
<title>C17</title>
<ellipse fill="none" stroke="black" cx="458.21" cy="-3366.08" rx="105.22" ry="37.45"/>
<text text-anchor="middle" x="458.21" y="-3377.38" font-family="Times New Roman,serif" font-size="14.00">Sandy Mason</text>
<text text-anchor="middle" x="458.21" y="-3362.38" font-family="Times New Roman,serif" font-size="14.00">Color: 1::BN: 4</text>
<text text-anchor="middle" x="458.21" y="-3347.38" font-family="Times New Roman,serif" font-size="14.00">Pasos: 11::Atendido V2</text>
</g>
<!-- C16&#45;&gt;C17 -->
<g id="edge22" class="edge">
<title>C16&#45;&gt;C17</title>
<path fill="none" stroke="black" d="M458.21,-3439.45C458.21,-3431.27 458.21,-3422.49 458.21,-3413.97"/>
<polygon fill="black" stroke="black" points="461.71,-3413.75 458.21,-3403.75 454.71,-3413.75 461.71,-3413.75"/>
</g>
<!-- C18 -->
<g id="node23" class="node">
<title>C18</title>
<ellipse fill="none" stroke="black" cx="458.21" cy="-3255.12" rx="100.32" ry="37.45"/>
<text text-anchor="middle" x="458.21" y="-3266.42" font-family="Times New Roman,serif" font-size="14.00">Stefanie Wise</text>
<text text-anchor="middle" x="458.21" y="-3251.42" font-family="Times New Roman,serif" font-size="14.00">Color: 1::BN: 0</text>
<text text-anchor="middle" x="458.21" y="-3236.42" font-family="Times New Roman,serif" font-size="14.00">Pasos: 7::Atendido V3</text>
</g>
<!-- C17&#45;&gt;C18 -->
<g id="edge23" class="edge">
<title>C17&#45;&gt;C18</title>
<path fill="none" stroke="black" d="M458.21,-3328.49C458.21,-3320.32 458.21,-3311.54 458.21,-3303.01"/>
<polygon fill="black" stroke="black" points="461.71,-3302.79 458.21,-3292.79 454.71,-3302.79 461.71,-3302.79"/>
</g>
<!-- C19 -->
<g id="node24" class="node">
<title>C19</title>
<ellipse fill="none" stroke="black" cx="458.21" cy="-3144.17" rx="100.32" ry="37.45"/>
<text text-anchor="middle" x="458.21" y="-3155.47" font-family="Times New Roman,serif" font-size="14.00">Tommie Mcpherson</text>
<text text-anchor="middle" x="458.21" y="-3140.47" font-family="Times New Roman,serif" font-size="14.00">Color: 1::BN: 1</text>
<text text-anchor="middle" x="458.21" y="-3125.47" font-family="Times New Roman,serif" font-size="14.00">Pasos: 8::Atendido V2</text>
</g>
<!-- C18&#45;&gt;C19 -->
<g id="edge24" class="edge">
<title>C18&#45;&gt;C19</title>
<path fill="none" stroke="black" d="M458.21,-3217.54C458.21,-3209.37 458.21,-3200.59 458.21,-3192.06"/>
<polygon fill="black" stroke="black" points="461.71,-3191.84 458.21,-3181.84 454.71,-3191.84 461.71,-3191.84"/>
</g>
<!-- C20 -->
<g id="node25" class="node">
<title>C20</title>
<ellipse fill="none" stroke="black" cx="458.21" cy="-3033.22" rx="105.22" ry="37.45"/>
<text text-anchor="middle" x="458.21" y="-3044.52" font-family="Times New Roman,serif" font-size="14.00">Tabatha Pickett</text>
<text text-anchor="middle" x="458.21" y="-3029.52" font-family="Times New Roman,serif" font-size="14.00">Color: 3::BN: 2</text>
<text text-anchor="middle" x="458.21" y="-3014.52" font-family="Times New Roman,serif" font-size="14.00">Pasos: 11::Atendido V3</text>
</g>
<!-- C19&#45;&gt;C20 -->
<g id="edge25" class="edge">
<title>C19&#45;&gt;C20</title>
<path fill="none" stroke="black" d="M458.21,-3106.59C458.21,-3098.41 458.21,-3089.63 458.21,-3081.11"/>
<polygon fill="black" stroke="black" points="461.71,-3080.89 458.21,-3070.89 454.71,-3080.89 461.71,-3080.89"/>
</g>
<!-- C21 -->
<g id="node26" class="node">
<title>C21</title>
<ellipse fill="none" stroke="black" cx="458.21" cy="-2922.26" rx="105.22" ry="37.45"/>
<text text-anchor="middle" x="458.21" y="-2933.56" font-family="Times New Roman,serif" font-size="14.00">Leach Ross</text>
<text text-anchor="middle" x="458.21" y="-2918.56" font-family="Times New Roman,serif" font-size="14.00">Color: 3::BN: 4</text>
<text text-anchor="middle" x="458.21" y="-2903.56" font-family="Times New Roman,serif" font-size="14.00">Pasos: 13::Atendido V1</text>
</g>
<!-- C20&#45;&gt;C21 -->
<g id="edge26" class="edge">
<title>C20&#45;&gt;C21</title>
<path fill="none" stroke="black" d="M458.21,-2995.63C458.21,-2987.46 458.21,-2978.68 458.21,-2970.15"/>
<polygon fill="black" stroke="black" points="461.71,-2969.93 458.21,-2959.93 454.71,-2969.93 461.71,-2969.93"/>
</g>
<!-- C22 -->
<g id="node27" class="node">
<title>C22</title>
<ellipse fill="none" stroke="black" cx="458.21" cy="-2811.31" rx="105.22" ry="37.45"/>
<text text-anchor="middle" x="458.21" y="-2822.61" font-family="Times New Roman,serif" font-size="14.00">Whitney Clayton</text>
<text text-anchor="middle" x="458.21" y="-2807.61" font-family="Times New Roman,serif" font-size="14.00">Color: 0::BN: 4</text>
<text text-anchor="middle" x="458.21" y="-2792.61" font-family="Times New Roman,serif" font-size="14.00">Pasos: 10::Atendido V2</text>
</g>
<!-- C21&#45;&gt;C22 -->
<g id="edge27" class="edge">
<title>C21&#45;&gt;C22</title>
<path fill="none" stroke="black" d="M458.21,-2884.68C458.21,-2876.51 458.21,-2867.73 458.21,-2859.2"/>
<polygon fill="black" stroke="black" points="461.71,-2858.98 458.21,-2848.98 454.71,-2858.98 461.71,-2858.98"/>
</g>
<!-- C23 -->
<g id="node28" class="node">
<title>C23</title>
<ellipse fill="none" stroke="black" cx="458.21" cy="-2700.36" rx="100.32" ry="37.45"/>
<text text-anchor="middle" x="458.21" y="-2711.66" font-family="Times New Roman,serif" font-size="14.00">Ellison Hood</text>
<text text-anchor="middle" x="458.21" y="-2696.66" font-family="Times New Roman,serif" font-size="14.00">Color: 3::BN: 0</text>
<text text-anchor="middle" x="458.21" y="-2681.66" font-family="Times New Roman,serif" font-size="14.00">Pasos: 9::Atendido V3</text>
</g>
<!-- C22&#45;&gt;C23 -->
<g id="edge28" class="edge">
<title>C22&#45;&gt;C23</title>
<path fill="none" stroke="black" d="M458.21,-2773.73C458.21,-2765.55 458.21,-2756.77 458.21,-2748.25"/>
<polygon fill="black" stroke="black" points="461.71,-2748.03 458.21,-2738.03 454.71,-2748.03 461.71,-2748.03"/>
</g>
<!-- C24 -->
<g id="node29" class="node">
<title>C24</title>
<ellipse fill="none" stroke="black" cx="458.21" cy="-2589.4" rx="105.22" ry="37.45"/>
<text text-anchor="middle" x="458.21" y="-2600.7" font-family="Times New Roman,serif" font-size="14.00">Heidi Lowery</text>
<text text-anchor="middle" x="458.21" y="-2585.7" font-family="Times New Roman,serif" font-size="14.00">Color: 4::BN: 2</text>
<text text-anchor="middle" x="458.21" y="-2570.7" font-family="Times New Roman,serif" font-size="14.00">Pasos: 12::Atendido V1</text>
</g>
<!-- C23&#45;&gt;C24 -->
<g id="edge29" class="edge">
<title>C23&#45;&gt;C24</title>
<path fill="none" stroke="black" d="M458.21,-2662.77C458.21,-2654.6 458.21,-2645.82 458.21,-2637.29"/>
<polygon fill="black" stroke="black" points="461.71,-2637.07 458.21,-2627.07 454.71,-2637.07 461.71,-2637.07"/>
</g>
<!-- C25 -->
<g id="node30" class="node">
<title>C25</title>
<ellipse fill="none" stroke="black" cx="458.21" cy="-2478.45" rx="100.32" ry="37.45"/>
<text text-anchor="middle" x="458.21" y="-2489.75" font-family="Times New Roman,serif" font-size="14.00">Andrews Vance</text>
<text text-anchor="middle" x="458.21" y="-2474.75" font-family="Times New Roman,serif" font-size="14.00">Color: 2::BN: 1</text>
<text text-anchor="middle" x="458.21" y="-2459.75" font-family="Times New Roman,serif" font-size="14.00">Pasos: 9::Atendido V3</text>
</g>
<!-- C24&#45;&gt;C25 -->
<g id="edge30" class="edge">
<title>C24&#45;&gt;C25</title>
<path fill="none" stroke="black" d="M458.21,-2551.82C458.21,-2543.65 458.21,-2534.87 458.21,-2526.34"/>
<polygon fill="black" stroke="black" points="461.71,-2526.12 458.21,-2516.12 454.71,-2526.12 461.71,-2526.12"/>
</g>
<!-- C26 -->
<g id="node31" class="node">
<title>C26</title>
<ellipse fill="none" stroke="black" cx="458.21" cy="-2367.5" rx="105.22" ry="37.45"/>
<text text-anchor="middle" x="458.21" y="-2378.8" font-family="Times New Roman,serif" font-size="14.00">Dixie Howard</text>
<text text-anchor="middle" x="458.21" y="-2363.8" font-family="Times New Roman,serif" font-size="14.00">Color: 0::BN: 4</text>
<text text-anchor="middle" x="458.21" y="-2348.8" font-family="Times New Roman,serif" font-size="14.00">Pasos: 10::Atendido V2</text>
</g>
<!-- C25&#45;&gt;C26 -->
<g id="edge31" class="edge">
<title>C25&#45;&gt;C26</title>
<path fill="none" stroke="black" d="M458.21,-2440.87C458.21,-2432.69 458.21,-2423.91 458.21,-2415.39"/>
<polygon fill="black" stroke="black" points="461.71,-2415.17 458.21,-2405.17 454.71,-2415.17 461.71,-2415.17"/>
</g>
<!-- C27 -->
<g id="node32" class="node">
<title>C27</title>
<ellipse fill="none" stroke="black" cx="458.21" cy="-2256.54" rx="100.32" ry="37.45"/>
<text text-anchor="middle" x="458.21" y="-2267.84" font-family="Times New Roman,serif" font-size="14.00">Mabel Nicholson</text>
<text text-anchor="middle" x="458.21" y="-2252.84" font-family="Times New Roman,serif" font-size="14.00">Color: 2::BN: 0</text>
<text text-anchor="middle" x="458.21" y="-2237.84" font-family="Times New Roman,serif" font-size="14.00">Pasos: 8::Atendido V2</text>
</g>
<!-- C26&#45;&gt;C27 -->
<g id="edge32" class="edge">
<title>C26&#45;&gt;C27</title>
<path fill="none" stroke="black" d="M458.21,-2329.91C458.21,-2321.74 458.21,-2312.96 458.21,-2304.43"/>
<polygon fill="black" stroke="black" points="461.71,-2304.21 458.21,-2294.21 454.71,-2304.21 461.71,-2304.21"/>
</g>
<!-- C28 -->
<g id="node33" class="node">
<title>C28</title>
<ellipse fill="none" stroke="black" cx="458.21" cy="-2145.59" rx="105.22" ry="37.45"/>
<text text-anchor="middle" x="458.21" y="-2156.89" font-family="Times New Roman,serif" font-size="14.00">Maggie Levine</text>
<text text-anchor="middle" x="458.21" y="-2141.89" font-family="Times New Roman,serif" font-size="14.00">Color: 4::BN: 2</text>
<text text-anchor="middle" x="458.21" y="-2126.89" font-family="Times New Roman,serif" font-size="14.00">Pasos: 12::Atendido V1</text>
</g>
<!-- C27&#45;&gt;C28 -->
<g id="edge33" class="edge">
<title>C27&#45;&gt;C28</title>
<path fill="none" stroke="black" d="M458.21,-2218.96C458.21,-2210.79 458.21,-2202.01 458.21,-2193.48"/>
<polygon fill="black" stroke="black" points="461.71,-2193.26 458.21,-2183.26 454.71,-2193.26 461.71,-2193.26"/>
</g>
<!-- C29 -->
<g id="node34" class="node">
<title>C29</title>
<ellipse fill="none" stroke="black" cx="458.21" cy="-2034.64" rx="105.22" ry="37.45"/>
<text text-anchor="middle" x="458.21" y="-2045.94" font-family="Times New Roman,serif" font-size="14.00">Erma Barron</text>
<text text-anchor="middle" x="458.21" y="-2030.94" font-family="Times New Roman,serif" font-size="14.00">Color: 1::BN: 4</text>
<text text-anchor="middle" x="458.21" y="-2015.94" font-family="Times New Roman,serif" font-size="14.00">Pasos: 11::Atendido V3</text>
</g>
<!-- C28&#45;&gt;C29 -->
<g id="edge34" class="edge">
<title>C28&#45;&gt;C29</title>
<path fill="none" stroke="black" d="M458.21,-2108.01C458.21,-2099.83 458.21,-2091.05 458.21,-2082.53"/>
<polygon fill="black" stroke="black" points="461.71,-2082.31 458.21,-2072.31 454.71,-2082.31 461.71,-2082.31"/>
</g>
<!-- C30 -->
<g id="node35" class="node">
<title>C30</title>
<ellipse fill="none" stroke="black" cx="458.21" cy="-1923.68" rx="100.32" ry="37.45"/>
<text text-anchor="middle" x="458.21" y="-1934.98" font-family="Times New Roman,serif" font-size="14.00">Witt Forbes</text>
<text text-anchor="middle" x="458.21" y="-1919.98" font-family="Times New Roman,serif" font-size="14.00">Color: 1::BN: 0</text>
<text text-anchor="middle" x="458.21" y="-1904.98" font-family="Times New Roman,serif" font-size="14.00">Pasos: 7::Atendido V2</text>
</g>
<!-- C29&#45;&gt;C30 -->
<g id="edge35" class="edge">
<title>C29&#45;&gt;C30</title>
<path fill="none" stroke="black" d="M458.21,-1997.05C458.21,-1988.88 458.21,-1980.1 458.21,-1971.57"/>
<polygon fill="black" stroke="black" points="461.71,-1971.35 458.21,-1961.35 454.71,-1971.35 461.71,-1971.35"/>
</g>
<!-- C31 -->
<g id="node36" class="node">
<title>C31</title>
<ellipse fill="none" stroke="black" cx="458.21" cy="-1812.73" rx="100.32" ry="37.45"/>
<text text-anchor="middle" x="458.21" y="-1824.03" font-family="Times New Roman,serif" font-size="14.00">Maddox Frazier</text>
<text text-anchor="middle" x="458.21" y="-1809.03" font-family="Times New Roman,serif" font-size="14.00">Color: 1::BN: 1</text>
<text text-anchor="middle" x="458.21" y="-1794.03" font-family="Times New Roman,serif" font-size="14.00">Pasos: 8::Atendido V3</text>
</g>
<!-- C30&#45;&gt;C31 -->
<g id="edge36" class="edge">
<title>C30&#45;&gt;C31</title>
<path fill="none" stroke="black" d="M458.21,-1886.1C458.21,-1877.93 458.21,-1869.15 458.21,-1860.62"/>
<polygon fill="black" stroke="black" points="461.71,-1860.4 458.21,-1850.4 454.71,-1860.4 461.71,-1860.4"/>
</g>
<!-- C32 -->
<g id="node37" class="node">
<title>C32</title>
<ellipse fill="none" stroke="black" cx="458.21" cy="-1701.78" rx="105.22" ry="37.45"/>
<text text-anchor="middle" x="458.21" y="-1713.08" font-family="Times New Roman,serif" font-size="14.00">Moore Horton</text>
<text text-anchor="middle" x="458.21" y="-1698.08" font-family="Times New Roman,serif" font-size="14.00">Color: 0::BN: 4</text>
<text text-anchor="middle" x="458.21" y="-1683.08" font-family="Times New Roman,serif" font-size="14.00">Pasos: 10::Atendido V2</text>
</g>
<!-- C31&#45;&gt;C32 -->
<g id="edge37" class="edge">
<title>C31&#45;&gt;C32</title>
<path fill="none" stroke="black" d="M458.21,-1775.15C458.21,-1766.97 458.21,-1758.19 458.21,-1749.67"/>
<polygon fill="black" stroke="black" points="461.71,-1749.45 458.21,-1739.45 454.71,-1749.45 461.71,-1749.45"/>
</g>
<!-- C33 -->
<g id="node38" class="node">
<title>C33</title>
<ellipse fill="none" stroke="black" cx="458.21" cy="-1590.82" rx="105.22" ry="37.45"/>
<text text-anchor="middle" x="458.21" y="-1602.12" font-family="Times New Roman,serif" font-size="14.00">Bennett Malone</text>
<text text-anchor="middle" x="458.21" y="-1587.12" font-family="Times New Roman,serif" font-size="14.00">Color: 4::BN: 2</text>
<text text-anchor="middle" x="458.21" y="-1572.12" font-family="Times New Roman,serif" font-size="14.00">Pasos: 12::Atendido V1</text>
</g>
<!-- C32&#45;&gt;C33 -->
<g id="edge38" class="edge">
<title>C32&#45;&gt;C33</title>
<path fill="none" stroke="black" d="M458.21,-1664.19C458.21,-1656.02 458.21,-1647.24 458.21,-1638.71"/>
<polygon fill="black" stroke="black" points="461.71,-1638.49 458.21,-1628.49 454.71,-1638.5 461.71,-1638.49"/>
</g>
<!-- C34 -->
<g id="node39" class="node">
<title>C34</title>
<ellipse fill="none" stroke="black" cx="458.21" cy="-1479.87" rx="100.32" ry="37.45"/>
<text text-anchor="middle" x="458.21" y="-1491.17" font-family="Times New Roman,serif" font-size="14.00">Hatfield Sykes</text>
<text text-anchor="middle" x="458.21" y="-1476.17" font-family="Times New Roman,serif" font-size="14.00">Color: 1::BN: 0</text>
<text text-anchor="middle" x="458.21" y="-1461.17" font-family="Times New Roman,serif" font-size="14.00">Pasos: 7::Atendido V3</text>
</g>
<!-- C33&#45;&gt;C34 -->
<g id="edge39" class="edge">
<title>C33&#45;&gt;C34</title>
<path fill="none" stroke="black" d="M458.21,-1553.24C458.21,-1545.07 458.21,-1536.29 458.21,-1527.76"/>
<polygon fill="black" stroke="black" points="461.71,-1527.54 458.21,-1517.54 454.71,-1527.54 461.71,-1527.54"/>
</g>
<!-- C35 -->
<g id="node40" class="node">
<title>C35</title>
<ellipse fill="none" stroke="black" cx="458.21" cy="-1368.92" rx="100.32" ry="37.45"/>
<text text-anchor="middle" x="458.21" y="-1380.22" font-family="Times New Roman,serif" font-size="14.00">Garza York</text>
<text text-anchor="middle" x="458.21" y="-1365.22" font-family="Times New Roman,serif" font-size="14.00">Color: 2::BN: 0</text>
<text text-anchor="middle" x="458.21" y="-1350.22" font-family="Times New Roman,serif" font-size="14.00">Pasos: 8::Atendido V2</text>
</g>
<!-- C34&#45;&gt;C35 -->
<g id="edge40" class="edge">
<title>C34&#45;&gt;C35</title>
<path fill="none" stroke="black" d="M458.21,-1442.29C458.21,-1434.11 458.21,-1425.33 458.21,-1416.81"/>
<polygon fill="black" stroke="black" points="461.71,-1416.59 458.21,-1406.59 454.71,-1416.59 461.71,-1416.59"/>
</g>
<!-- C36 -->
<g id="node41" class="node">
<title>C36</title>
<ellipse fill="none" stroke="black" cx="458.21" cy="-1257.96" rx="100.32" ry="37.45"/>
<text text-anchor="middle" x="458.21" y="-1269.26" font-family="Times New Roman,serif" font-size="14.00">Macdonald Murray</text>
<text text-anchor="middle" x="458.21" y="-1254.26" font-family="Times New Roman,serif" font-size="14.00">Color: 1::BN: 1</text>
<text text-anchor="middle" x="458.21" y="-1239.26" font-family="Times New Roman,serif" font-size="14.00">Pasos: 8::Atendido V1</text>
</g>
<!-- C35&#45;&gt;C36 -->
<g id="edge41" class="edge">
<title>C35&#45;&gt;C36</title>
<path fill="none" stroke="black" d="M458.21,-1331.33C458.21,-1323.16 458.21,-1314.38 458.21,-1305.85"/>
<polygon fill="black" stroke="black" points="461.71,-1305.64 458.21,-1295.64 454.71,-1305.64 461.71,-1305.64"/>
</g>
<!-- C37 -->
<g id="node42" class="node">
<title>C37</title>
<ellipse fill="none" stroke="black" cx="458.21" cy="-1147.01" rx="100.32" ry="37.45"/>
<text text-anchor="middle" x="458.21" y="-1158.31" font-family="Times New Roman,serif" font-size="14.00">Romero Sanders</text>
<text text-anchor="middle" x="458.21" y="-1143.31" font-family="Times New Roman,serif" font-size="14.00">Color: 2::BN: 0</text>
<text text-anchor="middle" x="458.21" y="-1128.31" font-family="Times New Roman,serif" font-size="14.00">Pasos: 8::Atendido V2</text>
</g>
<!-- C36&#45;&gt;C37 -->
<g id="edge42" class="edge">
<title>C36&#45;&gt;C37</title>
<path fill="none" stroke="black" d="M458.21,-1220.38C458.21,-1212.21 458.21,-1203.43 458.21,-1194.9"/>
<polygon fill="black" stroke="black" points="461.71,-1194.68 458.21,-1184.68 454.71,-1194.68 461.71,-1194.68"/>
</g>
<!-- C38 -->
<g id="node43" class="node">
<title>C38</title>
<ellipse fill="none" stroke="black" cx="458.21" cy="-1036.06" rx="100.32" ry="37.45"/>
<text text-anchor="middle" x="458.21" y="-1047.36" font-family="Times New Roman,serif" font-size="14.00">Etta Blake</text>
<text text-anchor="middle" x="458.21" y="-1032.36" font-family="Times New Roman,serif" font-size="14.00">Color: 3::BN: 0</text>
<text text-anchor="middle" x="458.21" y="-1017.36" font-family="Times New Roman,serif" font-size="14.00">Pasos: 9::Atendido V3</text>
</g>
<!-- C37&#45;&gt;C38 -->
<g id="edge43" class="edge">
<title>C37&#45;&gt;C38</title>
<path fill="none" stroke="black" d="M458.21,-1109.43C458.21,-1101.25 458.21,-1092.47 458.21,-1083.95"/>
<polygon fill="black" stroke="black" points="461.71,-1083.73 458.21,-1073.73 454.71,-1083.73 461.71,-1083.73"/>
</g>
<!-- C39 -->
<g id="node44" class="node">
<title>C39</title>
<ellipse fill="none" stroke="black" cx="458.21" cy="-925.1" rx="101.65" ry="37.45"/>
<text text-anchor="middle" x="458.21" y="-936.4" font-family="Times New Roman,serif" font-size="14.00">Washington Dickerson</text>
<text text-anchor="middle" x="458.21" y="-921.4" font-family="Times New Roman,serif" font-size="14.00">Color: 3::BN: 0</text>
<text text-anchor="middle" x="458.21" y="-906.4" font-family="Times New Roman,serif" font-size="14.00">Pasos: 9::Atendido V2</text>
</g>
<!-- C38&#45;&gt;C39 -->
<g id="edge44" class="edge">
<title>C38&#45;&gt;C39</title>
<path fill="none" stroke="black" d="M458.21,-998.47C458.21,-990.3 458.21,-981.52 458.21,-972.99"/>
<polygon fill="black" stroke="black" points="461.71,-972.78 458.21,-962.78 454.71,-972.78 461.71,-972.78"/>
</g>
<!-- C40 -->
<g id="node45" class="node">
<title>C40</title>
<ellipse fill="none" stroke="black" cx="458.21" cy="-814.15" rx="105.22" ry="37.45"/>
<text text-anchor="middle" x="458.21" y="-825.45" font-family="Times New Roman,serif" font-size="14.00">Vicky Jimenez</text>
<text text-anchor="middle" x="458.21" y="-810.45" font-family="Times New Roman,serif" font-size="14.00">Color: 4::BN: 4</text>
<text text-anchor="middle" x="458.21" y="-795.45" font-family="Times New Roman,serif" font-size="14.00">Pasos: 14::Atendido V1</text>
</g>
<!-- C39&#45;&gt;C40 -->
<g id="edge45" class="edge">
<title>C39&#45;&gt;C40</title>
<path fill="none" stroke="black" d="M458.21,-887.52C458.21,-879.35 458.21,-870.57 458.21,-862.04"/>
<polygon fill="black" stroke="black" points="461.71,-861.82 458.21,-851.82 454.71,-861.82 461.71,-861.82"/>
</g>
<!-- C41 -->
<g id="node46" class="node">
<title>C41</title>
<ellipse fill="none" stroke="black" cx="458.21" cy="-703.2" rx="105.22" ry="37.45"/>
<text text-anchor="middle" x="458.21" y="-714.5" font-family="Times New Roman,serif" font-size="14.00">Ethel Cortez</text>
<text text-anchor="middle" x="458.21" y="-699.5" font-family="Times New Roman,serif" font-size="14.00">Color: 3::BN: 2</text>
<text text-anchor="middle" x="458.21" y="-684.5" font-family="Times New Roman,serif" font-size="14.00">Pasos: 11::Atendido V3</text>
</g>
<!-- C40&#45;&gt;C41 -->
<g id="edge46" class="edge">
<title>C40&#45;&gt;C41</title>
<path fill="none" stroke="black" d="M458.21,-776.57C458.21,-768.39 458.21,-759.61 458.21,-751.09"/>
<polygon fill="black" stroke="black" points="461.71,-750.87 458.21,-740.87 454.71,-750.87 461.71,-750.87"/>
</g>
<!-- C42 -->
<g id="node47" class="node">
<title>C42</title>
<ellipse fill="none" stroke="black" cx="458.21" cy="-592.24" rx="105.22" ry="37.45"/>
<text text-anchor="middle" x="458.21" y="-603.54" font-family="Times New Roman,serif" font-size="14.00">Christa Mendoza</text>
<text text-anchor="middle" x="458.21" y="-588.54" font-family="Times New Roman,serif" font-size="14.00">Color: 2::BN: 3</text>
<text text-anchor="middle" x="458.21" y="-573.54" font-family="Times New Roman,serif" font-size="14.00">Pasos: 11::Atendido V2</text>
</g>
<!-- C41&#45;&gt;C42 -->
<g id="edge47" class="edge">
<title>C41&#45;&gt;C42</title>
<path fill="none" stroke="black" d="M458.21,-665.61C458.21,-657.44 458.21,-648.66 458.21,-640.13"/>
<polygon fill="black" stroke="black" points="461.71,-639.92 458.21,-629.92 454.71,-639.92 461.71,-639.92"/>
</g>
<!-- C43 -->
<g id="node48" class="node">
<title>C43</title>
<ellipse fill="none" stroke="black" cx="458.21" cy="-481.29" rx="100.32" ry="37.45"/>
<text text-anchor="middle" x="458.21" y="-492.59" font-family="Times New Roman,serif" font-size="14.00">Alyce Alford</text>
<text text-anchor="middle" x="458.21" y="-477.59" font-family="Times New Roman,serif" font-size="14.00">Color: 3::BN: 0</text>
<text text-anchor="middle" x="458.21" y="-462.59" font-family="Times New Roman,serif" font-size="14.00">Pasos: 9::Atendido V1</text>
</g>
<!-- C42&#45;&gt;C43 -->
<g id="edge48" class="edge">
<title>C42&#45;&gt;C43</title>
<path fill="none" stroke="black" d="M458.21,-554.66C458.21,-546.49 458.21,-537.71 458.21,-529.18"/>
<polygon fill="black" stroke="black" points="461.71,-528.96 458.21,-518.96 454.71,-528.96 461.71,-528.96"/>
</g>
<!-- C44 -->
<g id="node49" class="node">
<title>C44</title>
<ellipse fill="none" stroke="black" cx="458.21" cy="-370.34" rx="105.22" ry="37.45"/>
<text text-anchor="middle" x="458.21" y="-381.64" font-family="Times New Roman,serif" font-size="14.00">Brigitte Wheeler</text>
<text text-anchor="middle" x="458.21" y="-366.64" font-family="Times New Roman,serif" font-size="14.00">Color: 4::BN: 3</text>
<text text-anchor="middle" x="458.21" y="-351.64" font-family="Times New Roman,serif" font-size="14.00">Pasos: 13::Atendido V3</text>
</g>
<!-- C43&#45;&gt;C44 -->
<g id="edge49" class="edge">
<title>C43&#45;&gt;C44</title>
<path fill="none" stroke="black" d="M458.21,-443.71C458.21,-435.53 458.21,-426.75 458.21,-418.23"/>
<polygon fill="black" stroke="black" points="461.71,-418.01 458.21,-408.01 454.71,-418.01 461.71,-418.01"/>
</g>
<!-- C45 -->
<g id="node50" class="node">
<title>C45</title>
<ellipse fill="none" stroke="black" cx="461.21" cy="-259.38" rx="100.32" ry="37.45"/>
<text text-anchor="middle" x="461.21" y="-270.68" font-family="Times New Roman,serif" font-size="14.00">Shannon Johnston</text>
<text text-anchor="middle" x="461.21" y="-255.68" font-family="Times New Roman,serif" font-size="14.00">Color: 0::BN: 0</text>
<text text-anchor="middle" x="461.21" y="-240.68" font-family="Times New Roman,serif" font-size="14.00">Pasos: 6::Atendido V2</text>
</g>
<!-- C44&#45;&gt;C45 -->
<g id="edge50" class="edge">
<title>C44&#45;&gt;C45</title>
<path fill="none" stroke="black" d="M459.22,-332.75C459.44,-324.58 459.68,-315.8 459.92,-307.27"/>
<polygon fill="black" stroke="black" points="463.42,-307.15 460.2,-297.06 456.42,-306.96 463.42,-307.15"/>
</g>
<!-- C46 -->
<g id="node51" class="node">
<title>C46</title>
<ellipse fill="none" stroke="black" cx="462.21" cy="-148.43" rx="100.32" ry="37.45"/>
<text text-anchor="middle" x="462.21" y="-159.73" font-family="Times New Roman,serif" font-size="14.00">Elinor Ford</text>
<text text-anchor="middle" x="462.21" y="-144.73" font-family="Times New Roman,serif" font-size="14.00">Color: 0::BN: 0</text>
<text text-anchor="middle" x="462.21" y="-129.73" font-family="Times New Roman,serif" font-size="14.00">Pasos: 6::Atendido V3</text>
</g>
<!-- C45&#45;&gt;C46 -->
<g id="edge51" class="edge">
<title>C45&#45;&gt;C46</title>
<path fill="none" stroke="black" d="M461.54,-221.8C461.62,-213.63 461.7,-204.85 461.78,-196.32"/>
<polygon fill="black" stroke="black" points="465.28,-196.13 461.87,-186.1 458.28,-196.07 465.28,-196.13"/>
</g>
<!-- C47 -->
<g id="node52" class="node">
<title>C47</title>
<ellipse fill="none" stroke="black" cx="526.21" cy="-37.48" rx="105.22" ry="37.45"/>
<text text-anchor="middle" x="526.21" y="-48.78" font-family="Times New Roman,serif" font-size="14.00">Leigh Bright</text>
<text text-anchor="middle" x="526.21" y="-33.78" font-family="Times New Roman,serif" font-size="14.00">Color: 1::BN: 4</text>
<text text-anchor="middle" x="526.21" y="-18.78" font-family="Times New Roman,serif" font-size="14.00">Pasos: 11::Atendido V1</text>
</g>
<!-- C46&#45;&gt;C47 -->
<g id="edge52" class="edge">
<title>C46&#45;&gt;C47</title>
<path fill="none" stroke="black" d="M483.16,-111.75C488.58,-102.54 494.47,-92.5 500.12,-82.9"/>
<polygon fill="black" stroke="black" points="503.16,-84.63 505.21,-74.23 497.12,-81.08 503.16,-84.63"/>
</g>
<!-- C47&#45;&gt;C1 -->
<g id="edge53" class="edge">
<title>C47&#45;&gt;C1</title>
<path fill="none" stroke="black" d="M552.27,-73.81C559.49,-85.16 566.6,-98.13 571.21,-110.95 593.59,-173.18 591.21,-192.26 591.21,-258.38 591.21,-4920.42 591.21,-4920.42 591.21,-4920.42 591.21,-4986.61 600.5,-5009 570.21,-5067.85 564.09,-5079.74 555.25,-5090.76 545.73,-5100.44"/>
<polygon fill="black" stroke="black" points="543.12,-5098.1 538.37,-5107.57 547.99,-5103.13 543.12,-5098.1"/>
</g>
</g>
</svg>
