<?xml version="1.0" encoding="UTF-8" standalone="no"?>
<!DOCTYPE svg PUBLIC "-//W3C//DTD SVG 1.1//EN"
 "http://www.w3.org/Graphics/SVG/1.1/DTD/svg11.dtd">
<!-- Generated by graphviz version 2.50.0 (20211204.2007)
 -->
<!-- Pages: 1 -->
<svg width="685pt" height="971pt"
 viewBox="0.00 0.00 684.57 970.58" xmlns="http://www.w3.org/2000/svg" xmlns:xlink="http://www.w3.org/1999/xlink">
<g id="graph0" class="graph" transform="scale(1 1) rotate(0) translate(4 966.58)">
<polygon fill="white" stroke="transparent" points="-4,4 -4,-966.58 680.57,-966.58 680.57,4 -4,4"/>
<!-- V1 -->
<g id="node1" class="node">
<title>V1</title>
<ellipse fill="none" stroke="black" cx="120.21" cy="-925.1" rx="120.42" ry="26.74"/>
<text text-anchor="middle" x="120.21" y="-928.9" font-family="Times New Roman,serif" font-size="14.00">Polly Rodriguez</text>
<text text-anchor="middle" x="120.21" y="-913.9" font-family="Times New Roman,serif" font-size="14.00">Color: 1::Blanco y Negro: 0</text>
</g>
<!-- V2 -->
<g id="node2" class="node">
<title>V2</title>
<ellipse fill="none" stroke="black" cx="120.21" cy="-814.15" rx="120.42" ry="26.74"/>
<text text-anchor="middle" x="120.21" y="-817.95" font-family="Times New Roman,serif" font-size="14.00">Yang Wiggins</text>
<text text-anchor="middle" x="120.21" y="-802.95" font-family="Times New Roman,serif" font-size="14.00">Color: 0::Blanco y Negro: 0</text>
</g>
<!-- V1&#45;&gt;V2 -->
<g id="edge1" class="edge">
<title>V1&#45;&gt;V2</title>
<path fill="none" stroke="black" d="M120.21,-898.01C120.21,-883.99 120.21,-866.5 120.21,-851.2"/>
<polygon fill="black" stroke="black" points="123.71,-851.03 120.21,-841.03 116.71,-851.03 123.71,-851.03"/>
</g>
<!-- V3 -->
<g id="node3" class="node">
<title>V3</title>
<ellipse fill="none" stroke="black" cx="120.21" cy="-703.2" rx="120.42" ry="26.74"/>
<text text-anchor="middle" x="120.21" y="-707" font-family="Times New Roman,serif" font-size="14.00">Carolyn Harmon</text>
<text text-anchor="middle" x="120.21" y="-692" font-family="Times New Roman,serif" font-size="14.00">Color: 2::Blanco y Negro: 0</text>
</g>
<!-- V2&#45;&gt;V3 -->
<g id="edge2" class="edge">
<title>V2&#45;&gt;V3</title>
<path fill="none" stroke="black" d="M120.21,-787.05C120.21,-773.04 120.21,-755.55 120.21,-740.25"/>
<polygon fill="black" stroke="black" points="123.71,-740.08 120.21,-730.08 116.71,-740.08 123.71,-740.08"/>
</g>
<!-- E1 -->
<g id="node4" class="node">
<title>E1</title>
<ellipse fill="none" stroke="black" cx="338.21" cy="-925.1" rx="79.81" ry="26.74"/>
<text text-anchor="middle" x="338.21" y="-928.9" font-family="Times New Roman,serif" font-size="14.00">Evelyn Fitzgerald</text>
<text text-anchor="middle" x="338.21" y="-913.9" font-family="Times New Roman,serif" font-size="14.00">Pasos:4</text>
</g>
<!-- E1&#45;&gt;E1 -->
<g id="edge3" class="edge">
<title>E1&#45;&gt;E1</title>
<path fill="none" stroke="black" d="M412.91,-934.85C426.55,-933.62 436.11,-930.37 436.11,-925.1 436.11,-921.24 430.95,-918.46 422.81,-916.77"/>
<polygon fill="black" stroke="black" points="423.3,-913.3 412.91,-915.36 422.32,-920.23 423.3,-913.3"/>
</g>
<!-- E1&#45;&gt;E1 -->
<g id="edge4" class="edge">
<title>E1&#45;&gt;E1</title>
<path fill="none" stroke="black" d="M393.36,-944.63C424.86,-948.53 454.11,-942.02 454.11,-925.1 454.11,-910.03 430.91,-903.22 403.58,-904.67"/>
<polygon fill="black" stroke="black" points="403.01,-901.2 393.36,-905.57 403.63,-908.18 403.01,-901.2"/>
</g>
<!-- C1 -->
<g id="node5" class="node">
<title>C1</title>
<ellipse fill="none" stroke="black" cx="572.21" cy="-925.1" rx="100.32" ry="37.45"/>
<text text-anchor="middle" x="572.21" y="-936.4" font-family="Times New Roman,serif" font-size="14.00">Jolene Mccall</text>
<text text-anchor="middle" x="572.21" y="-921.4" font-family="Times New Roman,serif" font-size="14.00">Color: 0::BN: 0</text>
<text text-anchor="middle" x="572.21" y="-906.4" font-family="Times New Roman,serif" font-size="14.00">Pasos: 6::Atendido V2</text>
</g>
<!-- C2 -->
<g id="node6" class="node">
<title>C2</title>
<ellipse fill="none" stroke="black" cx="506.21" cy="-814.15" rx="100.32" ry="37.45"/>
<text text-anchor="middle" x="506.21" y="-825.45" font-family="Times New Roman,serif" font-size="14.00">Long Meyer</text>
<text text-anchor="middle" x="506.21" y="-810.45" font-family="Times New Roman,serif" font-size="14.00">Color: 3::BN: 0</text>
<text text-anchor="middle" x="506.21" y="-795.45" font-family="Times New Roman,serif" font-size="14.00">Pasos: 9::Atendido V2</text>
</g>
<!-- C1&#45;&gt;C2 -->
<g id="edge5" class="edge">
<title>C1&#45;&gt;C2</title>
<path fill="none" stroke="black" d="M550.6,-888.43C545.01,-879.21 538.93,-869.17 533.12,-859.57"/>
<polygon fill="black" stroke="black" points="536.04,-857.65 527.87,-850.91 530.06,-861.27 536.04,-857.65"/>
</g>
<!-- C3 -->
<g id="node7" class="node">
<title>C3</title>
<ellipse fill="none" stroke="black" cx="504.21" cy="-703.2" rx="105.22" ry="37.45"/>
<text text-anchor="middle" x="504.21" y="-714.5" font-family="Times New Roman,serif" font-size="14.00">Geraldine Pierce</text>
<text text-anchor="middle" x="504.21" y="-699.5" font-family="Times New Roman,serif" font-size="14.00">Color: 3::BN: 1</text>
<text text-anchor="middle" x="504.21" y="-684.5" font-family="Times New Roman,serif" font-size="14.00">Pasos: 10::Atendido V1</text>
</g>
<!-- C2&#45;&gt;C3 -->
<g id="edge6" class="edge">
<title>C2&#45;&gt;C3</title>
<path fill="none" stroke="black" d="M505.54,-776.57C505.39,-768.39 505.23,-759.61 505.07,-751.09"/>
<polygon fill="black" stroke="black" points="508.56,-750.8 504.88,-740.87 501.57,-750.93 508.56,-750.8"/>
</g>
<!-- C4 -->
<g id="node8" class="node">
<title>C4</title>
<ellipse fill="none" stroke="black" cx="504.21" cy="-592.24" rx="100.32" ry="37.45"/>
<text text-anchor="middle" x="504.21" y="-603.54" font-family="Times New Roman,serif" font-size="14.00">Gay Mcmillan</text>
<text text-anchor="middle" x="504.21" y="-588.54" font-family="Times New Roman,serif" font-size="14.00">Color: 0::BN: 1</text>
<text text-anchor="middle" x="504.21" y="-573.54" font-family="Times New Roman,serif" font-size="14.00">Pasos: 7::Atendido V1</text>
</g>
<!-- C3&#45;&gt;C4 -->
<g id="edge7" class="edge">
<title>C3&#45;&gt;C4</title>
<path fill="none" stroke="black" d="M504.21,-665.61C504.21,-657.44 504.21,-648.66 504.21,-640.13"/>
<polygon fill="black" stroke="black" points="507.71,-639.92 504.21,-629.92 500.71,-639.92 507.71,-639.92"/>
</g>
<!-- C5 -->
<g id="node9" class="node">
<title>C5</title>
<ellipse fill="none" stroke="black" cx="504.21" cy="-481.29" rx="105.22" ry="37.45"/>
<text text-anchor="middle" x="504.21" y="-492.59" font-family="Times New Roman,serif" font-size="14.00">Gutierrez Casey</text>
<text text-anchor="middle" x="504.21" y="-477.59" font-family="Times New Roman,serif" font-size="14.00">Color: 3::BN: 4</text>
<text text-anchor="middle" x="504.21" y="-462.59" font-family="Times New Roman,serif" font-size="14.00">Pasos: 13::Atendido V3</text>
</g>
<!-- C4&#45;&gt;C5 -->
<g id="edge8" class="edge">
<title>C4&#45;&gt;C5</title>
<path fill="none" stroke="black" d="M504.21,-554.66C504.21,-546.49 504.21,-537.71 504.21,-529.18"/>
<polygon fill="black" stroke="black" points="507.71,-528.96 504.21,-518.96 500.71,-528.96 507.71,-528.96"/>
</g>
<!-- C6 -->
<g id="node10" class="node">
<title>C6</title>
<ellipse fill="none" stroke="black" cx="504.21" cy="-370.34" rx="105.22" ry="37.45"/>
<text text-anchor="middle" x="504.21" y="-381.64" font-family="Times New Roman,serif" font-size="14.00">Nola Winters</text>
<text text-anchor="middle" x="504.21" y="-366.64" font-family="Times New Roman,serif" font-size="14.00">Color: 3::BN: 1</text>
<text text-anchor="middle" x="504.21" y="-351.64" font-family="Times New Roman,serif" font-size="14.00">Pasos: 10::Atendido V2</text>
</g>
<!-- C5&#45;&gt;C6 -->
<g id="edge9" class="edge">
<title>C5&#45;&gt;C6</title>
<path fill="none" stroke="black" d="M504.21,-443.71C504.21,-435.53 504.21,-426.75 504.21,-418.23"/>
<polygon fill="black" stroke="black" points="507.71,-418.01 504.21,-408.01 500.71,-418.01 507.71,-418.01"/>
</g>
<!-- C7 -->
<g id="node11" class="node">
<title>C7</title>
<ellipse fill="none" stroke="black" cx="504.21" cy="-259.38" rx="105.22" ry="37.45"/>
<text text-anchor="middle" x="504.21" y="-270.68" font-family="Times New Roman,serif" font-size="14.00">Pruitt Perez</text>
<text text-anchor="middle" x="504.21" y="-255.68" font-family="Times New Roman,serif" font-size="14.00">Color: 4::BN: 2</text>
<text text-anchor="middle" x="504.21" y="-240.68" font-family="Times New Roman,serif" font-size="14.00">Pasos: 12::Atendido V1</text>
</g>
<!-- C6&#45;&gt;C7 -->
<g id="edge10" class="edge">
<title>C6&#45;&gt;C7</title>
<path fill="none" stroke="black" d="M504.21,-332.75C504.21,-324.58 504.21,-315.8 504.21,-307.27"/>
<polygon fill="black" stroke="black" points="507.71,-307.06 504.21,-297.06 500.71,-307.06 507.71,-307.06"/>
</g>
<!-- C8 -->
<g id="node12" class="node">
<title>C8</title>
<ellipse fill="none" stroke="black" cx="507.21" cy="-148.43" rx="100.32" ry="37.45"/>
<text text-anchor="middle" x="507.21" y="-159.73" font-family="Times New Roman,serif" font-size="14.00">Hudson Lancaster</text>
<text text-anchor="middle" x="507.21" y="-144.73" font-family="Times New Roman,serif" font-size="14.00">Color: 1::BN: 1</text>
<text text-anchor="middle" x="507.21" y="-129.73" font-family="Times New Roman,serif" font-size="14.00">Pasos: 8::Atendido V2</text>
</g>
<!-- C7&#45;&gt;C8 -->
<g id="edge11" class="edge">
<title>C7&#45;&gt;C8</title>
<path fill="none" stroke="black" d="M505.22,-221.8C505.44,-213.63 505.68,-204.85 505.92,-196.32"/>
<polygon fill="black" stroke="black" points="509.42,-196.19 506.2,-186.1 502.42,-196 509.42,-196.19"/>
</g>
<!-- C9 -->
<g id="node13" class="node">
<title>C9</title>
<ellipse fill="none" stroke="black" cx="571.21" cy="-37.48" rx="105.22" ry="37.45"/>
<text text-anchor="middle" x="571.21" y="-48.78" font-family="Times New Roman,serif" font-size="14.00">Roman Branch</text>
<text text-anchor="middle" x="571.21" y="-33.78" font-family="Times New Roman,serif" font-size="14.00">Color: 3::BN: 2</text>
<text text-anchor="middle" x="571.21" y="-18.78" font-family="Times New Roman,serif" font-size="14.00">Pasos: 11::Atendido V3</text>
</g>
<!-- C8&#45;&gt;C9 -->
<g id="edge12" class="edge">
<title>C8&#45;&gt;C9</title>
<path fill="none" stroke="black" d="M528.16,-111.75C533.58,-102.54 539.47,-92.5 545.12,-82.9"/>
<polygon fill="black" stroke="black" points="548.16,-84.63 550.21,-74.23 542.12,-81.08 548.16,-84.63"/>
</g>
<!-- C9&#45;&gt;C1 -->
<g id="edge13" class="edge">
<title>C9&#45;&gt;C1</title>
<path fill="none" stroke="black" d="M597.22,-73.83C604.43,-85.18 611.55,-98.15 616.21,-110.95 638.81,-173.16 637.21,-192.2 637.21,-258.38 637.21,-704.2 637.21,-704.2 637.21,-704.2 637.21,-770.45 637.41,-789.21 615.21,-851.63 611.82,-861.14 607.14,-870.79 602.1,-879.81"/>
<polygon fill="black" stroke="black" points="599,-878.19 596.98,-888.59 605.04,-881.72 599,-878.19"/>
</g>
</g>
</svg>
