<?xml version="1.0" encoding="UTF-8" standalone="no"?>
<!DOCTYPE svg PUBLIC "-//W3C//DTD SVG 1.1//EN"
 "http://www.w3.org/Graphics/SVG/1.1/DTD/svg11.dtd">
<!-- Generated by graphviz version 2.50.0 (20211204.2007)
 -->
<!-- Pages: 1 -->
<svg width="248pt" height="241pt"
 viewBox="0.00 0.00 248.42 241.22" xmlns="http://www.w3.org/2000/svg" xmlns:xlink="http://www.w3.org/1999/xlink">
<g id="graph0" class="graph" transform="scale(1 1) rotate(0) translate(4 237.22)">
<polygon fill="white" stroke="transparent" points="-4,4 -4,-237.22 244.42,-237.22 244.42,4 -4,4"/>
<!-- V1 -->
<g id="node1" class="node">
<title>V1</title>
<ellipse fill="none" stroke="black" cx="120.21" cy="-206.35" rx="120.42" ry="26.74"/>
<text text-anchor="middle" x="120.21" y="-210.15" font-family="Times New Roman,serif" font-size="14.00">Jandres Lopez</text>
<text text-anchor="middle" x="120.21" y="-195.15" font-family="Times New Roman,serif" font-size="14.00">Color: 1::Blanco y Negro: 1</text>
</g>
<!-- V2 -->
<g id="node2" class="node">
<title>V2</title>
<ellipse fill="none" stroke="black" cx="120.21" cy="-116.61" rx="120.42" ry="26.74"/>
<text text-anchor="middle" x="120.21" y="-120.41" font-family="Times New Roman,serif" font-size="14.00">Juan Perez</text>
<text text-anchor="middle" x="120.21" y="-105.41" font-family="Times New Roman,serif" font-size="14.00">Color: 1::Blanco y Negro: 0</text>
</g>
<!-- V1&#45;&gt;V2 -->
<g id="edge1" class="edge">
<title>V1&#45;&gt;V2</title>
<path fill="none" stroke="black" d="M120.21,-179.03C120.21,-171.06 120.21,-162.17 120.21,-153.68"/>
<polygon fill="black" stroke="black" points="123.71,-153.61 120.21,-143.61 116.71,-153.61 123.71,-153.61"/>
</g>
<!-- V3 -->
<g id="node3" class="node">
<title>V3</title>
<ellipse fill="none" stroke="black" cx="120.21" cy="-26.87" rx="120.42" ry="26.74"/>
<text text-anchor="middle" x="120.21" y="-30.67" font-family="Times New Roman,serif" font-size="14.00">Luiz Higueros</text>
<text text-anchor="middle" x="120.21" y="-15.67" font-family="Times New Roman,serif" font-size="14.00">Color: 0::Blanco y Negro: 0</text>
</g>
<!-- V2&#45;&gt;V3 -->
<g id="edge2" class="edge">
<title>V2&#45;&gt;V3</title>
<path fill="none" stroke="black" d="M120.21,-89.29C120.21,-81.32 120.21,-72.43 120.21,-63.94"/>
<polygon fill="black" stroke="black" points="123.71,-63.87 120.21,-53.87 116.71,-63.87 123.71,-63.87"/>
</g>
</g>
</svg>
